<svg width="100" height="100" viewBox="0 0 100 100" fill="none" xmlns="http://www.w3.org/2000/svg">
    <g id="Clip path group">
        <mask id="mask0_183_144" style="mask-type:luminance" maskUnits="userSpaceOnUse" x="0" y="0"
            width="100" height="100">
            <g id="be34d7ead7">
                <path id="Vector" d="M0 0H100V100H0V0Z" fill="white" />
            </g>
        </mask>
        <g mask="url(#mask0_183_144)">
            <g id="Group">
                <path id="Vector_2"
                    d="M43.7233 41.37C43.7233 41.5563 43.5715 41.7046 43.3887 41.7046C43.2025 41.7046 43.0542 41.5563 43.0542 41.37C43.0542 41.1872 43.2025 41.0354 43.3887 41.0354C43.5715 41.0354 43.7233 41.1872 43.7233 41.37ZM41.7161 39.3626C41.5299 39.3626 41.3816 39.5143 41.3816 39.6971C41.3816 39.8834 41.5299 40.0317 41.7161 40.0317C41.8989 40.0317 42.0506 39.8834 42.0506 39.6971C42.0506 39.5143 41.8989 39.3626 41.7161 39.3626ZM45.0579 39.3626C44.8752 39.3626 44.7234 39.5143 44.7234 39.6971C44.7234 39.8834 44.8752 40.0317 45.0579 40.0317C45.2442 40.0317 45.3925 39.8834 45.3925 39.6971C45.3925 39.5143 45.2442 39.3626 45.0579 39.3626ZM40.109 41.0423C40.0883 41.0389 40.0641 41.0354 40.0435 41.0354C39.9952 41.0354 39.9538 41.0458 39.9124 41.063C39.7917 41.1148 39.7089 41.232 39.7089 41.37C39.7089 41.508 39.7917 41.6287 39.9124 41.677C39.9538 41.6942 39.9952 41.7046 40.0435 41.7046C40.0641 41.7046 40.0883 41.7011 40.109 41.6977C40.2607 41.6666 40.378 41.5321 40.378 41.37C40.378 41.2079 40.2607 41.0734 40.109 41.0423ZM43.3853 47.7269C43.2715 47.7269 43.168 47.7856 43.1094 47.8752C43.0749 47.927 43.0508 47.9925 43.0508 48.0615C43.0508 48.1063 43.0611 48.1512 43.0784 48.1926C43.1301 48.3099 43.2473 48.3961 43.3853 48.3961C43.5267 48.3961 43.644 48.3099 43.6957 48.1926C43.7129 48.1512 43.7198 48.1063 43.7198 48.0615C43.7198 47.9925 43.6991 47.927 43.6646 47.8752C43.6026 47.7856 43.5026 47.7269 43.3853 47.7269ZM43.3853 44.3812C43.2025 44.3812 43.0542 44.5295 43.0542 44.7158C43.0542 44.902 43.2025 45.0503 43.3853 45.0503C43.5715 45.0503 43.7198 44.902 43.7198 44.7158C43.7233 44.5295 43.5715 44.3812 43.3853 44.3812ZM41.7161 46.0541C41.5299 46.0541 41.3816 46.2024 41.3816 46.3886C41.3816 46.5714 41.5299 46.7232 41.7161 46.7232C41.8989 46.7232 42.0506 46.5714 42.0506 46.3886C42.0506 46.2024 41.8989 46.0541 41.7161 46.0541ZM45.0579 46.0541C44.8752 46.0541 44.7234 46.2024 44.7234 46.3886C44.7234 46.5714 44.8752 46.7232 45.0579 46.7232C45.2442 46.7232 45.3925 46.5714 45.3925 46.3886C45.3925 46.2024 45.2442 46.0541 45.0579 46.0541ZM41.7161 42.7083C41.5299 42.7083 41.3816 42.8601 41.3816 43.0429C41.3816 43.2291 41.5299 43.3775 41.7161 43.3775C41.8989 43.3775 42.0506 43.2291 42.0506 43.0429C42.0506 42.8566 41.8989 42.7083 41.7161 42.7083ZM45.0579 42.7083C44.8752 42.7083 44.7234 42.8601 44.7234 43.0429C44.7234 43.2291 44.8752 43.3775 45.0579 43.3775C45.2442 43.3775 45.3925 43.2291 45.3925 43.0429C45.3925 42.8566 45.2442 42.7083 45.0579 42.7083ZM40.109 47.7338C40.0883 47.7304 40.0641 47.7269 40.0435 47.7269C39.9952 47.7269 39.9538 47.7373 39.9124 47.7545C39.8538 47.7787 39.802 47.8201 39.7641 47.8752C39.7296 47.927 39.7089 47.9925 39.7089 48.0615C39.7089 48.1063 39.7193 48.1512 39.7331 48.1926C39.7676 48.2719 39.8331 48.334 39.9124 48.3685C39.9538 48.3857 39.9952 48.3961 40.0435 48.3961C40.0641 48.3961 40.0883 48.3926 40.109 48.3892C40.2193 48.365 40.309 48.2926 40.3504 48.1926C40.3676 48.1512 40.378 48.1063 40.378 48.0615C40.378 47.9925 40.3573 47.927 40.3194 47.8752C40.2711 47.8028 40.1987 47.7511 40.109 47.7338ZM40.109 44.3881C40.0883 44.3846 40.0641 44.3812 40.0435 44.3812C39.9952 44.3812 39.9538 44.3915 39.9124 44.4088C39.7917 44.4571 39.7089 44.5778 39.7089 44.7158C39.7089 44.8537 39.7917 44.9744 39.9124 45.0227C39.9538 45.04 39.9952 45.0503 40.0435 45.0503C40.0641 45.0503 40.0883 45.0469 40.109 45.0434C40.2607 45.0124 40.378 44.8779 40.378 44.7158C40.378 44.5536 40.2607 44.4191 40.109 44.3881ZM43.3853 54.4184C43.2025 54.4184 43.0542 54.5667 43.0542 54.7496C43.0542 54.9358 43.2025 55.0841 43.3853 55.0841C43.5715 55.0841 43.7198 54.9358 43.7198 54.7496C43.7198 54.5667 43.5715 54.4184 43.3853 54.4184ZM43.3853 51.0727C43.2025 51.0727 43.0542 51.221 43.0542 51.4073C43.0542 51.5901 43.2025 51.7418 43.3853 51.7418C43.5715 51.7418 43.7198 51.5901 43.7198 51.4073C43.7233 51.221 43.5715 51.0727 43.3853 51.0727ZM41.7161 52.7456C41.5299 52.7456 41.3816 52.8939 41.3816 53.0801C41.3816 53.2629 41.5299 53.4147 41.7161 53.4147C41.8989 53.4147 42.0506 53.2629 42.0506 53.0801C42.0506 52.8939 41.8989 52.7456 41.7161 52.7456ZM45.0579 52.7456C44.8752 52.7456 44.7234 52.8939 44.7234 53.0801C44.7234 53.2629 44.8752 53.4147 45.0579 53.4147C45.2442 53.4147 45.3925 53.2629 45.3925 53.0801C45.3925 52.8939 45.2442 52.7456 45.0579 52.7456ZM41.7161 49.3998C41.5299 49.3998 41.3816 49.5481 41.3816 49.7344C41.3816 49.9172 41.5299 50.069 41.7161 50.069C41.8989 50.069 42.0506 49.9172 42.0506 49.7344C42.0506 49.5481 41.8989 49.3998 41.7161 49.3998ZM45.0579 49.3998C44.8752 49.3998 44.7234 49.5481 44.7234 49.7344C44.7234 49.9172 44.8752 50.069 45.0579 50.069C45.2442 50.069 45.3925 49.9172 45.3925 49.7344C45.3925 49.5481 45.2442 49.3998 45.0579 49.3998ZM40.109 54.4253C40.0883 54.4184 40.0641 54.4184 40.0435 54.4184C39.9952 54.4184 39.9538 54.4253 39.9124 54.4426C39.7917 54.4943 39.7089 54.6116 39.7089 54.7496C39.7089 54.891 39.7917 55.0083 39.9124 55.06C39.9538 55.0772 39.9952 55.0841 40.0435 55.0841C40.0641 55.0841 40.0883 55.0841 40.109 55.0772C40.2607 55.0462 40.378 54.9117 40.378 54.7496C40.378 54.5909 40.2607 54.4564 40.109 54.4253ZM40.109 51.0796C40.0883 51.0727 40.0641 51.0727 40.0435 51.0727C39.9952 51.0727 39.9538 51.0796 39.9124 51.0968C39.7917 51.1486 39.7089 51.2693 39.7089 51.4073C39.7089 51.5452 39.7917 51.6625 39.9124 51.7142C39.9538 51.7315 39.9952 51.7418 40.0435 51.7418C40.0641 51.7418 40.0883 51.7384 40.109 51.7349C40.2607 51.7039 40.378 51.5694 40.378 51.4073C40.378 51.2451 40.2607 51.1106 40.109 51.0796ZM43.3853 61.1065C43.2715 61.1065 43.168 61.1651 43.1094 61.2548C43.0749 61.3065 43.0508 61.3721 43.0508 61.4411C43.0508 61.4894 43.0611 61.5307 43.0784 61.5721C43.1301 61.6929 43.2473 61.7756 43.3853 61.7756C43.5267 61.7756 43.644 61.6929 43.6957 61.5721C43.7129 61.5307 43.7198 61.4894 43.7198 61.4411C43.7198 61.3721 43.6991 61.3065 43.6646 61.2548C43.6026 61.1651 43.5026 61.1065 43.3853 61.1065ZM43.3853 57.7607C43.2025 57.7607 43.0542 57.9125 43.0542 58.0953C43.0542 58.2816 43.2025 58.4299 43.3853 58.4299C43.5715 58.4299 43.7198 58.2816 43.7198 58.0953C43.7233 57.9125 43.5715 57.7607 43.3853 57.7607ZM41.7161 59.4336C41.5299 59.4336 41.3816 59.5854 41.3816 59.7682C41.3816 59.9544 41.5299 60.1028 41.7161 60.1028C41.8989 60.1028 42.0506 59.9544 42.0506 59.7682C42.0506 59.5854 41.8989 59.4336 41.7161 59.4336ZM45.0579 59.4336C44.8752 59.4336 44.7234 59.5854 44.7234 59.7682C44.7234 59.9544 44.8752 60.1028 45.0579 60.1028C45.2442 60.1028 45.3925 59.9544 45.3925 59.7682C45.3925 59.5854 45.2442 59.4336 45.0579 59.4336ZM41.7161 56.0879C41.5299 56.0879 41.3816 56.2396 41.3816 56.4224C41.3816 56.6087 41.5299 56.757 41.7161 56.757C41.8989 56.757 42.0506 56.6087 42.0506 56.4224C42.0506 56.2396 41.8989 56.0879 41.7161 56.0879ZM45.0579 56.0879C44.8752 56.0879 44.7234 56.2396 44.7234 56.4224C44.7234 56.6087 44.8752 56.757 45.0579 56.757C45.2442 56.757 45.3925 56.6087 45.3925 56.4224C45.3925 56.2396 45.2442 56.0879 45.0579 56.0879ZM40.109 61.1134C40.0883 61.1099 40.0641 61.1065 40.0435 61.1065C39.9952 61.1065 39.9538 61.1168 39.9124 61.1341C39.8538 61.1582 39.802 61.2031 39.7641 61.2548C39.7296 61.3065 39.7089 61.3721 39.7089 61.4411C39.7089 61.4894 39.7193 61.5307 39.7331 61.5721C39.7676 61.6515 39.8331 61.717 39.9124 61.7515C39.9538 61.7653 39.9952 61.7756 40.0435 61.7756C40.0641 61.7756 40.0883 61.7722 40.109 61.7687C40.2193 61.748 40.309 61.6722 40.3504 61.5721C40.3676 61.5307 40.378 61.4894 40.378 61.4411C40.378 61.3721 40.3573 61.3065 40.3194 61.2548C40.2711 61.1824 40.1987 61.1306 40.109 61.1134ZM40.109 57.7676C40.0883 57.7642 40.0641 57.7607 40.0435 57.7607C39.9952 57.7607 39.9538 57.7711 39.9124 57.7883C39.7917 57.8401 39.7089 57.9573 39.7089 58.0953C39.7089 58.2333 39.7917 58.354 39.9124 58.4057C39.9538 58.423 39.9952 58.4299 40.0435 58.4299C40.0641 58.4299 40.0883 58.4299 40.109 58.423C40.2607 58.3919 40.378 58.2574 40.378 58.0953C40.378 57.9332 40.2607 57.7987 40.109 57.7676ZM43.3853 67.798C43.2025 67.798 43.0542 67.9463 43.0542 68.1326C43.0542 68.3154 43.2025 68.4671 43.3853 68.4671C43.5715 68.4671 43.7198 68.3154 43.7198 68.1326C43.7198 67.9463 43.5715 67.798 43.3853 67.798ZM43.3853 64.4522C43.2025 64.4522 43.0542 64.6006 43.0542 64.7868C43.0542 64.9731 43.2025 65.1214 43.3853 65.1214C43.5715 65.1214 43.7198 64.9731 43.7198 64.7868C43.7233 64.6006 43.5715 64.4522 43.3853 64.4522ZM41.7161 66.1251C41.5299 66.1251 41.3816 66.2734 41.3816 66.4597C41.3816 66.6459 41.5299 66.7943 41.7161 66.7943C41.8989 66.7943 42.0506 66.6425 42.0506 66.4597C42.0506 66.2734 41.8989 66.1251 41.7161 66.1251ZM45.0579 66.1251C44.8752 66.1251 44.7234 66.2734 44.7234 66.4597C44.7234 66.6459 44.8752 66.7943 45.0579 66.7943C45.2442 66.7943 45.3925 66.6425 45.3925 66.4597C45.3925 66.2734 45.2442 66.1251 45.0579 66.1251ZM41.7161 62.7794C41.5299 62.7794 41.3816 62.9311 41.3816 63.1139C41.3816 63.3002 41.5299 63.4485 41.7161 63.4485C41.8989 63.4485 42.0506 63.3002 42.0506 63.1139C42.0506 62.9311 41.8989 62.7794 41.7161 62.7794ZM45.0579 62.7794C44.8752 62.7794 44.7234 62.9311 44.7234 63.1139C44.7234 63.3002 44.8752 63.4485 45.0579 63.4485C45.2442 63.4485 45.3925 63.3002 45.3925 63.1139C45.3925 62.9311 45.2442 62.7794 45.0579 62.7794ZM40.109 67.8049C40.0883 67.8014 40.0641 67.798 40.0435 67.798C39.9952 67.798 39.9538 67.8083 39.9124 67.8256C39.7917 67.8739 39.7089 67.9946 39.7089 68.1326C39.7089 68.2705 39.7917 68.3878 39.9124 68.4395C39.9538 68.4568 39.9952 68.4671 40.0435 68.4671C40.0641 68.4671 40.0883 68.4637 40.109 68.4602C40.2607 68.4292 40.378 68.2947 40.378 68.1326C40.378 67.9705 40.2607 67.8359 40.109 67.8049ZM40.109 64.4591C40.0883 64.4557 40.0641 64.4522 40.0435 64.4522C39.9952 64.4522 39.9538 64.4626 39.9124 64.4798C39.7917 64.5281 39.7089 64.6488 39.7089 64.7868C39.7089 64.9248 39.7917 65.0455 39.9124 65.0938C39.9538 65.111 39.9952 65.1214 40.0435 65.1214C40.0641 65.1214 40.0883 65.1179 40.109 65.1145C40.2607 65.0834 40.378 64.9489 40.378 64.7868C40.378 64.6247 40.2607 64.4902 40.109 64.4591ZM43.3853 74.4895C43.2715 74.4895 43.168 74.5481 43.1094 74.6344C43.0749 74.6895 43.0508 74.7551 43.0508 74.8241C43.0508 74.8689 43.0611 74.9137 43.0784 74.9517C43.1301 75.0724 43.2473 75.1586 43.3853 75.1586C43.5267 75.1586 43.644 75.0724 43.6957 74.9517C43.7129 74.9137 43.7198 74.8689 43.7198 74.8241C43.7198 74.7551 43.6991 74.6895 43.6646 74.6344C43.6026 74.5481 43.5026 74.4895 43.3853 74.4895ZM43.3853 71.1437C43.2025 71.1437 43.0542 71.2921 43.0542 71.4783C43.0542 71.6611 43.2025 71.8129 43.3853 71.8129C43.5715 71.8129 43.7198 71.6611 43.7198 71.4783C43.7233 71.2921 43.5715 71.1437 43.3853 71.1437ZM41.7161 72.8166C41.5299 72.8166 41.3816 72.9649 41.3816 73.1512C41.3816 73.334 41.5299 73.4858 41.7161 73.4858C41.8989 73.4858 42.0506 73.334 42.0506 73.1512C42.0506 72.9649 41.8989 72.8166 41.7161 72.8166ZM45.0579 72.8166C44.8752 72.8166 44.7234 72.9649 44.7234 73.1512C44.7234 73.334 44.8752 73.4858 45.0579 73.4858C45.2442 73.4858 45.3925 73.334 45.3925 73.1512C45.3925 72.9649 45.2442 72.8166 45.0579 72.8166ZM41.7161 69.4709C41.5299 69.4709 41.3816 69.6192 41.3816 69.8054C41.3816 69.9882 41.5299 70.14 41.7161 70.14C41.8989 70.14 42.0506 69.9882 42.0506 69.8054C42.0506 69.6192 41.8989 69.4709 41.7161 69.4709ZM45.0579 69.4709C44.8752 69.4709 44.7234 69.6192 44.7234 69.8054C44.7234 69.9882 44.8752 70.14 45.0579 70.14C45.2442 70.14 45.3925 69.9882 45.3925 69.8054C45.3925 69.6192 45.2442 69.4709 45.0579 69.4709ZM40.109 74.4964C40.0883 74.4895 40.0641 74.4895 40.0435 74.4895C39.9952 74.4895 39.9538 74.4964 39.9124 74.5136C39.8538 74.5412 39.802 74.5826 39.7641 74.6344C39.7296 74.6895 39.7089 74.7551 39.7089 74.8241C39.7089 74.8689 39.7193 74.9137 39.7331 74.9517C39.7676 75.031 39.8331 75.0965 39.9124 75.131C39.9538 75.1483 39.9952 75.1586 40.0435 75.1586C40.0641 75.1586 40.0883 75.1552 40.109 75.1517C40.2193 75.1276 40.309 75.0517 40.3504 74.9517C40.3676 74.9137 40.378 74.8689 40.378 74.8241C40.378 74.7551 40.3573 74.6895 40.3194 74.6344C40.2711 74.5654 40.1987 74.5136 40.109 74.4964ZM40.109 71.1506C40.0883 71.1437 40.0641 71.1437 40.0435 71.1437C39.9952 71.1437 39.9538 71.1506 39.9124 71.1679C39.7917 71.2196 39.7089 71.3403 39.7089 71.4783C39.7089 71.6163 39.7917 71.7336 39.9124 71.7853C39.9538 71.8025 39.9952 71.8129 40.0435 71.8129C40.0641 71.8129 40.0883 71.8094 40.109 71.806C40.2607 71.7749 40.378 71.6404 40.378 71.4783C40.378 71.3162 40.2607 71.1817 40.109 71.1506ZM41.7161 76.1589C41.5299 76.1589 41.3816 76.3107 41.3816 76.4969C41.3816 76.6797 41.5299 76.8281 41.7161 76.8281C41.8989 76.8281 42.0506 76.6797 42.0506 76.4969C42.0506 76.3107 41.8989 76.1589 41.7161 76.1589ZM45.0579 76.1589C44.8752 76.1589 44.7234 76.3107 44.7234 76.4969C44.7234 76.6797 44.8752 76.8281 45.0579 76.8281C45.2442 76.8281 45.3925 76.6797 45.3925 76.4969C45.3925 76.3107 45.2442 76.1589 45.0579 76.1589ZM36.6982 41.0354C36.5119 41.0354 36.3636 41.1872 36.3636 41.37C36.3636 41.5563 36.5119 41.7046 36.6982 41.7046C36.8809 41.7046 37.0327 41.5563 37.0327 41.37C37.0327 41.1872 36.8809 41.0354 36.6982 41.0354ZM36.6982 47.7269C36.5809 47.7269 36.4809 47.7856 36.4188 47.8752C36.3843 47.927 36.3636 47.9925 36.3636 48.0615C36.3636 48.1063 36.374 48.1512 36.3878 48.1926C36.4395 48.3099 36.5602 48.3961 36.6982 48.3961C36.8361 48.3961 36.9534 48.3099 37.0051 48.1926C37.0223 48.1512 37.0327 48.1063 37.0327 48.0615C37.0327 47.9925 37.012 47.927 36.9741 47.8752C36.9154 47.7856 36.812 47.7269 36.6982 47.7269ZM36.6982 44.3812C36.5119 44.3812 36.3636 44.5295 36.3636 44.7158C36.3636 44.902 36.5119 45.0503 36.6982 45.0503C36.8809 45.0503 37.0327 44.902 37.0327 44.7158C37.0327 44.5295 36.8809 44.3812 36.6982 44.3812ZM35.0255 46.0541C34.8393 46.0541 34.691 46.2024 34.691 46.3886C34.691 46.5714 34.8393 46.7232 35.0255 46.7232C35.2083 46.7232 35.3601 46.5714 35.3601 46.3886C35.3601 46.2024 35.2083 46.0541 35.0255 46.0541ZM38.3708 46.0541C38.1846 46.0541 38.0363 46.2024 38.0363 46.3886C38.0363 46.5714 38.1846 46.7232 38.3708 46.7232C38.5536 46.7232 38.7053 46.5714 38.7053 46.3886C38.7053 46.2024 38.5536 46.0541 38.3708 46.0541ZM35.0255 42.7083C34.8393 42.7083 34.691 42.8601 34.691 43.0429C34.691 43.2291 34.8393 43.3775 35.0255 43.3775C35.2083 43.3775 35.3601 43.2291 35.3601 43.0429C35.3601 42.8566 35.2083 42.7083 35.0255 42.7083ZM38.3708 42.7083C38.1846 42.7083 38.0363 42.8601 38.0363 43.0429C38.0363 43.2291 38.1846 43.3775 38.3708 43.3775C38.5536 43.3775 38.7053 43.2291 38.7053 43.0429C38.7053 42.8566 38.5536 42.7083 38.3708 42.7083ZM33.5391 47.7821C33.4874 47.7476 33.4219 47.7269 33.3529 47.7269C33.2391 47.7269 33.1356 47.7856 33.077 47.8752C33.039 47.927 33.0183 47.9925 33.0183 48.0615C33.0183 48.1063 33.0287 48.1512 33.0459 48.1926C33.0942 48.3099 33.2149 48.3961 33.3529 48.3961C33.4219 48.3961 33.4874 48.3754 33.5391 48.3374C33.5943 48.303 33.6357 48.2512 33.6598 48.1926C33.6771 48.1512 33.6874 48.1063 33.6874 48.0615C33.6874 47.9925 33.6667 47.927 33.6288 47.8752C33.6081 47.8373 33.577 47.8063 33.5391 47.7821ZM33.5391 44.4398C33.4874 44.4019 33.4219 44.3812 33.3529 44.3812C33.1701 44.3812 33.0183 44.5295 33.0183 44.7158C33.0183 44.902 33.1701 45.0503 33.3529 45.0503C33.4219 45.0503 33.4874 45.0296 33.5391 44.9951C33.6288 44.9331 33.6874 44.833 33.6874 44.7158C33.6874 44.6019 33.6288 44.4985 33.5391 44.4398ZM36.6982 54.4184C36.5119 54.4184 36.3636 54.5667 36.3636 54.7496C36.3636 54.9358 36.5119 55.0841 36.6982 55.0841C36.8809 55.0841 37.0327 54.9358 37.0327 54.7496C37.0327 54.5667 36.8809 54.4184 36.6982 54.4184ZM36.6982 51.0727C36.5119 51.0727 36.3636 51.221 36.3636 51.4073C36.3636 51.5901 36.5119 51.7418 36.6982 51.7418C36.8809 51.7418 37.0327 51.5901 37.0327 51.4073C37.0327 51.221 36.8809 51.0727 36.6982 51.0727ZM35.0255 52.7456C34.8393 52.7456 34.691 52.8939 34.691 53.0801C34.691 53.2629 34.8393 53.4147 35.0255 53.4147C35.2083 53.4147 35.3601 53.2629 35.3601 53.0801C35.3601 52.8939 35.2083 52.7456 35.0255 52.7456ZM38.3708 52.7456C38.1846 52.7456 38.0363 52.8939 38.0363 53.0801C38.0363 53.2629 38.1846 53.4147 38.3708 53.4147C38.5536 53.4147 38.7053 53.2629 38.7053 53.0801C38.7053 52.8939 38.5536 52.7456 38.3708 52.7456ZM35.0255 49.3998C34.8393 49.3998 34.691 49.5481 34.691 49.7344C34.691 49.9172 34.8393 50.069 35.0255 50.069C35.2083 50.069 35.3601 49.9172 35.3601 49.7344C35.3601 49.5481 35.2083 49.3998 35.0255 49.3998ZM38.3708 49.3998C38.1846 49.3998 38.0363 49.5481 38.0363 49.7344C38.0363 49.9172 38.1846 50.069 38.3708 50.069C38.5536 50.069 38.7053 49.9172 38.7053 49.7344C38.7053 49.5481 38.5536 49.3998 38.3708 49.3998ZM33.5391 54.4736C33.4874 54.4391 33.4219 54.4184 33.3529 54.4184C33.1701 54.4184 33.0183 54.5667 33.0183 54.7496C33.0183 54.9358 33.1701 55.0841 33.3529 55.0841C33.4219 55.0841 33.4874 55.0634 33.5391 55.0289C33.6288 54.9669 33.6874 54.8668 33.6874 54.7496C33.6874 54.6357 33.6288 54.5357 33.5391 54.4736ZM33.5391 51.1279C33.4874 51.0934 33.4219 51.0727 33.3529 51.0727C33.1701 51.0727 33.0183 51.221 33.0183 51.4073C33.0183 51.5901 33.1701 51.7418 33.3529 51.7418C33.4219 51.7418 33.4874 51.7211 33.5391 51.6832C33.6288 51.6246 33.6874 51.5211 33.6874 51.4073C33.6874 51.29 33.6288 51.19 33.5391 51.1279ZM36.6982 61.1065C36.5809 61.1065 36.4809 61.1651 36.4188 61.2548C36.3843 61.3065 36.3636 61.3721 36.3636 61.4411C36.3636 61.4894 36.374 61.5307 36.3878 61.5721C36.4395 61.6929 36.5602 61.7756 36.6982 61.7756C36.8361 61.7756 36.9534 61.6929 37.0051 61.5721C37.0223 61.5307 37.0327 61.4894 37.0327 61.4411C37.0327 61.3721 37.012 61.3065 36.9741 61.2548C36.9154 61.1651 36.812 61.1065 36.6982 61.1065ZM36.6982 57.7607C36.5119 57.7607 36.3636 57.9125 36.3636 58.0953C36.3636 58.2816 36.5119 58.4299 36.6982 58.4299C36.8809 58.4299 37.0327 58.2816 37.0327 58.0953C37.0327 57.9125 36.8809 57.7607 36.6982 57.7607ZM35.0255 59.4336C34.8393 59.4336 34.691 59.5854 34.691 59.7682C34.691 59.9544 34.8393 60.1028 35.0255 60.1028C35.2083 60.1028 35.3601 59.9544 35.3601 59.7682C35.3601 59.5854 35.2083 59.4336 35.0255 59.4336ZM38.3708 59.4336C38.1846 59.4336 38.0363 59.5854 38.0363 59.7682C38.0363 59.9544 38.1846 60.1028 38.3708 60.1028C38.5536 60.1028 38.7053 59.9544 38.7053 59.7682C38.7053 59.5854 38.5536 59.4336 38.3708 59.4336ZM35.0255 56.0879C34.8393 56.0879 34.691 56.2396 34.691 56.4224C34.691 56.6087 34.8393 56.757 35.0255 56.757C35.2083 56.757 35.3601 56.6087 35.3601 56.4224C35.3601 56.2396 35.2083 56.0879 35.0255 56.0879ZM38.3708 56.0879C38.1846 56.0879 38.0363 56.2396 38.0363 56.4224C38.0363 56.6087 38.1846 56.757 38.3708 56.757C38.5536 56.757 38.7053 56.6087 38.7053 56.4224C38.7053 56.2396 38.5536 56.0879 38.3708 56.0879ZM33.5391 61.1651C33.4874 61.1272 33.4219 61.1065 33.3529 61.1065C33.2391 61.1065 33.1356 61.1651 33.077 61.2548C33.039 61.3065 33.0183 61.3721 33.0183 61.4411C33.0183 61.4894 33.0287 61.5307 33.0459 61.5721C33.0942 61.6929 33.2149 61.7756 33.3529 61.7756C33.4219 61.7756 33.4874 61.7549 33.5391 61.7204C33.5943 61.6825 33.6357 61.6308 33.6598 61.5721C33.6771 61.5307 33.6874 61.4894 33.6874 61.4411C33.6874 61.3721 33.6667 61.3065 33.6288 61.2548C33.6081 61.2203 33.577 61.1893 33.5391 61.1651ZM33.5391 57.8194C33.4874 57.7814 33.4219 57.7607 33.3529 57.7607C33.1701 57.7607 33.0183 57.9125 33.0183 58.0953C33.0183 58.2816 33.1701 58.4299 33.3529 58.4299C33.4219 58.4299 33.4874 58.4092 33.5391 58.3747C33.6288 58.3126 33.6874 58.2126 33.6874 58.0953C33.6874 57.9815 33.6288 57.878 33.5391 57.8194ZM36.6982 67.798C36.5119 67.798 36.3636 67.9463 36.3636 68.1326C36.3636 68.3154 36.5119 68.4671 36.6982 68.4671C36.8809 68.4671 37.0327 68.3154 37.0327 68.1326C37.0327 67.9463 36.8809 67.798 36.6982 67.798ZM36.6982 64.4522C36.5119 64.4522 36.3636 64.6006 36.3636 64.7868C36.3636 64.9731 36.5119 65.1214 36.6982 65.1214C36.8809 65.1214 37.0327 64.9731 37.0327 64.7868C37.0327 64.6006 36.8809 64.4522 36.6982 64.4522ZM35.0255 66.1251C34.8393 66.1251 34.691 66.2734 34.691 66.4597C34.691 66.6459 34.8393 66.7943 35.0255 66.7943C35.2083 66.7943 35.3601 66.6425 35.3601 66.4597C35.3601 66.2734 35.2083 66.1251 35.0255 66.1251ZM38.3708 66.1251C38.1846 66.1251 38.0363 66.2734 38.0363 66.4597C38.0363 66.6459 38.1846 66.7943 38.3708 66.7943C38.5536 66.7943 38.7053 66.6425 38.7053 66.4597C38.7053 66.2734 38.5536 66.1251 38.3708 66.1251ZM35.0255 62.7794C34.8393 62.7794 34.691 62.9311 34.691 63.1139C34.691 63.3002 34.8393 63.4485 35.0255 63.4485C35.2083 63.4485 35.3601 63.3002 35.3601 63.1139C35.3601 62.9311 35.2083 62.7794 35.0255 62.7794ZM38.3708 62.7794C38.1846 62.7794 38.0363 62.9311 38.0363 63.1139C38.0363 63.3002 38.1846 63.4485 38.3708 63.4485C38.5536 63.4485 38.7053 63.3002 38.7053 63.1139C38.7053 62.9311 38.5536 62.7794 38.3708 62.7794ZM33.5391 67.8532C33.4874 67.8187 33.4219 67.798 33.3529 67.798C33.1701 67.798 33.0183 67.9463 33.0183 68.1326C33.0183 68.3154 33.1701 68.4671 33.3529 68.4671C33.4219 68.4671 33.4874 68.4464 33.5391 68.4085C33.6288 68.3499 33.6874 68.2464 33.6874 68.1326C33.6874 68.0153 33.6288 67.9153 33.5391 67.8532ZM33.5391 64.5109C33.4874 64.4729 33.4219 64.4522 33.3529 64.4522C33.1701 64.4522 33.0183 64.6006 33.0183 64.7868C33.0183 64.9731 33.1701 65.1214 33.3529 65.1214C33.4219 65.1214 33.4874 65.1007 33.5391 65.0662C33.6288 65.0041 33.6874 64.9041 33.6874 64.7868C33.6874 64.673 33.6288 64.5695 33.5391 64.5109ZM36.6982 74.4895C36.5809 74.4895 36.4809 74.5481 36.4188 74.6344C36.3843 74.6895 36.3636 74.7551 36.3636 74.8241C36.3636 74.8689 36.374 74.9137 36.3878 74.9517C36.4395 75.0724 36.5602 75.1586 36.6982 75.1586C36.8361 75.1586 36.9534 75.0724 37.0051 74.9517C37.0223 74.9137 37.0327 74.8689 37.0327 74.8241C37.0327 74.7551 37.012 74.6895 36.9741 74.6344C36.9154 74.5481 36.812 74.4895 36.6982 74.4895ZM36.6982 71.1437C36.5119 71.1437 36.3636 71.2921 36.3636 71.4783C36.3636 71.6611 36.5119 71.8129 36.6982 71.8129C36.8809 71.8129 37.0327 71.6611 37.0327 71.4783C37.0327 71.2921 36.8809 71.1437 36.6982 71.1437ZM35.0255 72.8166C34.8393 72.8166 34.691 72.9649 34.691 73.1512C34.691 73.334 34.8393 73.4858 35.0255 73.4858C35.2083 73.4858 35.3601 73.334 35.3601 73.1512C35.3601 72.9649 35.2083 72.8166 35.0255 72.8166ZM38.3708 72.8166C38.1846 72.8166 38.0363 72.9649 38.0363 73.1512C38.0363 73.334 38.1846 73.4858 38.3708 73.4858C38.5536 73.4858 38.7053 73.334 38.7053 73.1512C38.7053 72.9649 38.5536 72.8166 38.3708 72.8166ZM35.0255 69.4709C34.8393 69.4709 34.691 69.6192 34.691 69.8054C34.691 69.9882 34.8393 70.14 35.0255 70.14C35.2083 70.14 35.3601 69.9882 35.3601 69.8054C35.3601 69.6192 35.2083 69.4709 35.0255 69.4709ZM38.3708 69.4709C38.1846 69.4709 38.0363 69.6192 38.0363 69.8054C38.0363 69.9882 38.1846 70.14 38.3708 70.14C38.5536 70.14 38.7053 69.9882 38.7053 69.8054C38.7053 69.6192 38.5536 69.4709 38.3708 69.4709ZM33.5391 71.1989C33.4874 71.1644 33.4219 71.1437 33.3529 71.1437C33.1701 71.1437 33.0183 71.2921 33.0183 71.4783C33.0183 71.6611 33.1701 71.8129 33.3529 71.8129C33.4219 71.8129 33.4874 71.7922 33.5391 71.7542C33.6288 71.6956 33.6874 71.5921 33.6874 71.4783C33.6874 71.361 33.6288 71.261 33.5391 71.1989ZM30.0076 47.7269C29.8938 47.7269 29.7903 47.7856 29.7317 47.8752C29.6938 47.927 29.6731 47.9925 29.6731 48.0615C29.6731 48.1063 29.6834 48.1512 29.7006 48.1926C29.7524 48.3099 29.8696 48.3961 30.0076 48.3961C30.1455 48.3961 30.2662 48.3099 30.318 48.1926C30.3352 48.1512 30.3421 48.1063 30.3421 48.0615C30.3421 47.9925 30.3214 47.927 30.2869 47.8752C30.2249 47.7856 30.1248 47.7269 30.0076 47.7269ZM31.6802 46.0541C31.4974 46.0541 31.3457 46.2024 31.3457 46.3886C31.3457 46.5714 31.4974 46.7232 31.6802 46.7232C31.8665 46.7232 32.0148 46.5714 32.0148 46.3886C32.0148 46.2024 31.8665 46.0541 31.6802 46.0541ZM30.0076 54.4184C29.8248 54.4184 29.6731 54.5667 29.6731 54.7496C29.6731 54.9358 29.8248 55.0841 30.0076 55.0841C30.1938 55.0841 30.3421 54.9358 30.3421 54.7496C30.3421 54.5667 30.1938 54.4184 30.0076 54.4184ZM30.0076 51.0727C29.8248 51.0727 29.6731 51.221 29.6731 51.4073C29.6731 51.5901 29.8248 51.7418 30.0076 51.7418C30.1938 51.7418 30.3421 51.5901 30.3421 51.4073C30.3421 51.221 30.1938 51.0727 30.0076 51.0727ZM28.3349 52.7456C28.1522 52.7456 28.0004 52.8939 28.0004 53.0801C28.0004 53.2629 28.1522 53.4147 28.3349 53.4147C28.5212 53.4147 28.6695 53.2629 28.6695 53.0801C28.6695 52.8939 28.5212 52.7456 28.3349 52.7456ZM31.6802 52.7456C31.4974 52.7456 31.3457 52.8939 31.3457 53.0801C31.3457 53.2629 31.4974 53.4147 31.6802 53.4147C31.8665 53.4147 32.0148 53.2629 32.0148 53.0801C32.0148 52.8939 31.8665 52.7456 31.6802 52.7456ZM31.6802 49.3998C31.4974 49.3998 31.3457 49.5481 31.3457 49.7344C31.3457 49.9172 31.4974 50.069 31.6802 50.069C31.8665 50.069 32.0148 49.9172 32.0148 49.7344C32.0148 49.5481 31.8665 49.3998 31.6802 49.3998ZM30.0076 61.1065C29.8938 61.1065 29.7903 61.1651 29.7317 61.2548C29.6938 61.3065 29.6731 61.3721 29.6731 61.4411C29.6731 61.4894 29.6834 61.5307 29.7006 61.5721C29.7524 61.6929 29.8696 61.7756 30.0076 61.7756C30.1455 61.7756 30.2662 61.6929 30.318 61.5721C30.3352 61.5307 30.3421 61.4894 30.3421 61.4411C30.3421 61.3721 30.3214 61.3065 30.2869 61.2548C30.2249 61.1651 30.1248 61.1065 30.0076 61.1065ZM30.0076 57.7607C29.8248 57.7607 29.6731 57.9125 29.6731 58.0953C29.6731 58.2816 29.8248 58.4299 30.0076 58.4299C30.1938 58.4299 30.3421 58.2816 30.3421 58.0953C30.3421 57.9125 30.1938 57.7607 30.0076 57.7607ZM28.3349 59.4336C28.1522 59.4336 28.0004 59.5854 28.0004 59.7682C28.0004 59.9544 28.1522 60.1028 28.3349 60.1028C28.5212 60.1028 28.6695 59.9544 28.6695 59.7682C28.6695 59.5854 28.5212 59.4336 28.3349 59.4336ZM31.6802 59.4336C31.4974 59.4336 31.3457 59.5854 31.3457 59.7682C31.3457 59.9544 31.4974 60.1028 31.6802 60.1028C31.8665 60.1028 32.0148 59.9544 32.0148 59.7682C32.0148 59.5854 31.8665 59.4336 31.6802 59.4336ZM28.3349 56.0879C28.1522 56.0879 28.0004 56.2396 28.0004 56.4224C28.0004 56.6087 28.1522 56.757 28.3349 56.757C28.5212 56.757 28.6695 56.6087 28.6695 56.4224C28.6695 56.2396 28.5212 56.0879 28.3349 56.0879ZM31.6802 56.0879C31.4974 56.0879 31.3457 56.2396 31.3457 56.4224C31.3457 56.6087 31.4974 56.757 31.6802 56.757C31.8665 56.757 32.0148 56.6087 32.0148 56.4224C32.0148 56.2396 31.8665 56.0879 31.6802 56.0879ZM26.6623 57.7607C26.4795 57.7607 26.3312 57.9125 26.3312 58.0953C26.3312 58.2816 26.4795 58.4299 26.6623 58.4299C26.8485 58.4299 26.9968 58.2816 26.9968 58.0953C26.9968 57.9125 26.8485 57.7607 26.6623 57.7607ZM30.0076 67.798C29.8248 67.798 29.6731 67.9463 29.6731 68.1326C29.6731 68.3154 29.8248 68.4671 30.0076 68.4671C30.1938 68.4671 30.3421 68.3154 30.3421 68.1326C30.3421 67.9463 30.1938 67.798 30.0076 67.798ZM30.0076 64.4522C29.8248 64.4522 29.6731 64.6006 29.6731 64.7868C29.6731 64.9731 29.8248 65.1214 30.0076 65.1214C30.1938 65.1214 30.3421 64.9731 30.3421 64.7868C30.3421 64.6006 30.1938 64.4522 30.0076 64.4522ZM31.6802 66.1251C31.4974 66.1251 31.3457 66.2734 31.3457 66.4597C31.3457 66.6459 31.4974 66.7943 31.6802 66.7943C31.8665 66.7943 32.0148 66.6425 32.0148 66.4597C32.0148 66.2734 31.8665 66.1251 31.6802 66.1251ZM28.3349 62.7794C28.1522 62.7794 28.0004 62.9311 28.0004 63.1139C28.0004 63.3002 28.1522 63.4485 28.3349 63.4485C28.5212 63.4485 28.6695 63.3002 28.6695 63.1139C28.6695 62.9311 28.5212 62.7794 28.3349 62.7794ZM31.6802 62.7794C31.4974 62.7794 31.3457 62.9311 31.3457 63.1139C31.3457 63.3002 31.4974 63.4485 31.6802 63.4485C31.8665 63.4485 32.0148 63.3002 32.0148 63.1139C32.0148 62.9311 31.8665 62.7794 31.6802 62.7794ZM31.6802 69.4709C31.4974 69.4709 31.3457 69.6192 31.3457 69.8054C31.3457 69.9882 31.4974 70.14 31.6802 70.14C31.8665 70.14 32.0148 69.9882 32.0148 69.8054C32.0148 69.6192 31.8665 69.4709 31.6802 69.4709ZM88.9157 68.0946C89.1778 68.3844 89.3951 69.2812 89.2537 70.5643C89.1571 71.4438 89.1813 72.0854 89.1985 72.551C89.2261 73.3306 89.2433 73.7583 88.5915 73.9859C88.5088 74.0135 88.4225 74.0273 88.3363 74.0273C88.257 74.0273 88.1777 74.0169 88.0984 73.9928C87.619 73.8479 87.0086 73.127 86.5361 72.1544C86.0464 71.1403 85.8843 70.2021 86.105 69.6433C86.4361 68.8086 87.45 67.8808 88.3743 67.8808C88.6846 67.8808 88.8226 67.9877 88.9157 68.0946ZM88.6847 68.3016C88.6364 68.2498 88.5708 68.1946 88.3743 68.1946C87.5742 68.1946 86.6913 69.019 86.3981 69.7571C86.2084 70.2366 86.3671 71.0817 86.8189 72.0198C87.2396 72.889 87.8018 73.5754 88.188 73.6927C88.2915 73.7238 88.3915 73.7203 88.4881 73.6858C88.9054 73.541 88.9157 73.3685 88.8847 72.5648C88.8674 72.0854 88.8433 71.4335 88.9399 70.5298C89.064 69.4088 88.9019 68.5465 88.6847 68.3016ZM75.8863 82.3365C75.7794 82.0881 76.0657 81.7881 76.8244 80.9809L77.0037 80.7912C77.59 80.1669 77.9314 79.5495 78.1797 79.0977C78.4419 78.6182 78.6177 78.3043 78.9143 78.3043C79.035 78.3043 79.1592 78.363 79.2937 78.4802C79.3385 78.5251 83.9047 82.7331 82.7562 84.206C82.6631 84.3267 82.5286 84.3922 82.3734 84.3922C82.0493 84.3922 81.6388 84.1163 81.1146 83.7645C80.2593 83.1884 79.0937 82.402 77.7073 82.402C77.5383 82.402 77.3658 82.4158 77.1969 82.44C76.7727 82.4986 76.514 82.5227 76.3347 82.5227C76.1622 82.5227 75.9553 82.502 75.8863 82.3365ZM76.1864 82.1985C76.214 82.2054 76.2588 82.2089 76.3347 82.2089C76.4968 82.2089 76.7416 82.1847 77.152 82.1261C77.3383 82.1019 77.5245 82.0881 77.7073 82.0881C79.1902 82.0881 80.4042 82.9056 81.2905 83.5023C81.7492 83.8128 82.1458 84.0783 82.3734 84.0783C82.4321 84.0783 82.4734 84.0576 82.5079 84.0128C83.1908 83.1367 80.8663 80.3325 79.0799 78.7148C78.9902 78.6286 78.9385 78.6182 78.9143 78.6182C78.8005 78.6182 78.635 78.9217 78.4556 79.246C78.197 79.7151 77.8452 80.3532 77.2313 81.0051L77.0555 81.1913C76.6623 81.6121 76.2553 82.0433 76.1864 82.1985ZM77.8038 81.2672C77.8073 80.7878 78.597 79.8185 79.2385 79.8185C79.3316 79.8185 79.4213 79.8392 79.5006 79.8806C80.1421 80.2014 81.6664 81.8088 81.7285 82.6435C81.7389 82.7642 81.7147 82.8573 81.6526 82.9229C81.6009 82.978 81.5285 83.0091 81.4423 83.0091C81.2457 83.0091 80.9698 82.8435 80.5559 82.5952C79.911 82.2089 79.0316 81.6811 78.2177 81.6673C77.959 81.6639 77.8004 81.5087 77.8038 81.2672ZM78.1522 81.2707C78.1522 81.2948 78.1556 81.3052 78.1556 81.3086C78.1556 81.3086 78.1694 81.319 78.2246 81.3224C79.1316 81.3362 80.0559 81.8915 80.7284 82.2951C80.9732 82.44 81.2422 82.6021 81.3802 82.6504C81.3043 81.9709 79.9593 80.4946 79.3454 80.1911C79.3144 80.1738 79.2765 80.1669 79.2385 80.1669C78.7971 80.1669 78.1556 80.943 78.1522 81.2707ZM77.9038 76.0727C77.9418 75.7209 78.0039 75.3449 78.2832 75.3449C78.5453 75.3449 78.8316 75.7416 79.4627 76.6073C80.0421 77.4041 80.9077 78.5975 82.1527 79.9979C82.8873 80.8257 84.3565 82.9815 84.2047 84.3715C84.1599 84.7785 83.9874 85.0924 83.6874 85.3097C83.4115 85.5098 83.0735 85.6133 82.6769 85.6133C81.6216 85.6133 80.28 84.8648 79.3799 84.1646C78.7695 83.692 78.0246 83.4609 77.0968 83.4609C76.4071 83.4609 75.7311 83.5851 75.1311 83.6955C74.6551 83.7817 74.2516 83.8576 73.924 83.8576C73.6067 83.8576 73.3929 83.7852 73.2515 83.6368C73.1756 83.5541 73.1377 83.454 73.1411 83.3471C73.1618 83.0401 73.5274 82.7331 74.1378 82.2227C75.4138 81.1534 77.5521 79.3633 77.9038 76.0727ZM74.3171 82.44C73.8447 82.8366 73.4343 83.1781 73.4239 83.3643C73.4239 83.385 73.4274 83.4092 73.4584 83.4437C73.5412 83.5334 73.6895 83.5748 73.924 83.5748C74.2275 83.5748 74.6206 83.5023 75.0793 83.4195C75.6897 83.3057 76.3829 83.1815 77.0968 83.1815C78.0901 83.1815 78.8936 83.4299 79.5524 83.9404C80.418 84.613 81.6906 85.3304 82.6769 85.3304C83.0115 85.3304 83.2977 85.2476 83.5219 85.0821C83.7529 84.9131 83.8909 84.6647 83.9254 84.3405C84.0633 83.047 82.6493 80.9809 81.9423 80.1842C80.687 78.7734 79.8145 77.5731 79.2385 76.7763C78.8109 76.19 78.4108 75.6346 78.2832 75.6243C78.2867 75.6312 78.228 75.6933 78.1832 76.1037C77.8176 79.5081 75.6277 81.3431 74.3171 82.44ZM75.4725 59.2612C75.8725 58.1505 79.1764 56.7536 80.6766 56.8536C81.1526 56.8846 81.3388 56.9157 81.3698 57.0985L81.3802 57.1019L81.3698 57.1088C81.394 57.2882 81.2284 57.3606 80.8318 57.5331C80.149 57.8332 78.8764 58.3885 78.2729 59.5302C77.8969 60.2373 77.5417 60.7098 77.0175 60.7098C76.6726 60.7098 76.276 60.5029 75.6932 60.0234C75.4483 59.8199 75.369 59.5474 75.4725 59.2612ZM75.9139 59.7544C76.4243 60.1752 76.7623 60.3615 77.0175 60.3615C77.3176 60.3615 77.59 60.0752 77.9659 59.3681C78.6246 58.1195 79.9731 57.5331 80.6939 57.2158C80.7042 57.2123 80.7111 57.2089 80.7215 57.2054C80.6973 57.202 80.6766 57.202 80.6525 57.1985C79.3316 57.1123 76.1346 58.4471 75.8001 59.3784C75.7449 59.5302 75.7794 59.6406 75.9139 59.7544ZM73.8688 59.6337C73.8378 59.4164 73.9481 59.1577 74.2068 58.8438C75.1138 57.74 77.6486 56.2431 78.7281 56.1775C78.9937 56.1603 79.2627 56.1534 79.5282 56.1534C81.6802 56.1534 83.4805 56.7363 83.5391 57.2227C83.5426 57.2744 83.546 57.4503 83.2805 57.5124C81.6526 57.8987 79.642 58.5954 78.5453 60.5926C77.8901 61.786 77.3383 62.3655 76.8589 62.3655C76.5554 62.3655 76.3105 62.1482 76.1312 61.7239C75.876 61.1134 75.338 60.8478 74.862 60.6098C74.3861 60.3718 73.9378 60.1476 73.8688 59.6337ZM74.1792 59.5923C74.2275 59.9406 74.5689 60.1097 75 60.327C75.5277 60.5891 76.1208 60.8857 76.4209 61.6032C76.545 61.8895 76.6864 62.0412 76.8451 62.0481C77.0348 62.055 77.49 61.8653 78.2694 60.4408C79.4213 58.3437 81.5009 57.6124 83.1908 57.2123C82.9425 56.9778 81.5871 56.4673 79.5282 56.4673C79.2696 56.4673 79.0074 56.4742 78.7453 56.4914C77.728 56.5535 75.3173 57.9849 74.4482 59.0438C74.1826 59.3681 74.1723 59.5371 74.1792 59.5923ZM124.979 61.5894V99.9241H45.8512V78.8424C45.8098 78.8424 45.7718 78.8424 45.7304 78.8424C40.14 78.801 34.9221 76.5832 31.0388 72.5993C23.0308 64.3764 23.2687 51.1003 31.5768 43.0015C35.4497 39.2315 40.4987 37.1171 45.8512 36.9998V26.5521C45.8512 11.9136 57.7597 0.00341797 72.3962 0.00341797C87.0361 0.00341797 98.9447 11.9136 98.9447 26.5521V35.0476C113.347 35.3201 124.979 47.1199 124.979 61.5894ZM97.9239 48.7651C97.0375 49.0411 96.2167 49.3757 96.0926 49.9172C95.9512 50.5449 96.9823 51.428 97.9239 52.1075V48.7651ZM97.9239 48.472V47.282C97.3307 47.4579 96.6685 47.5476 95.9167 47.5476C94.5475 47.5476 93.1266 47.2647 91.8713 47.0129C91.2229 46.8819 90.6159 46.7612 90.1642 46.7129C89.9055 46.6853 89.502 46.668 89.0882 46.668C87.7742 46.668 86.6395 47.1647 86.574 47.5752C86.5257 47.8787 87.0603 48.2443 88.0052 48.5444L88.1604 48.5927C92.0644 49.8448 95.0924 51.3831 97.9239 53.6044V52.4524C96.834 51.6866 95.6304 50.6898 95.8201 49.8551C95.9788 49.1549 96.9306 48.7755 97.9239 48.472ZM97.9239 46.9578V45.5574C97.3893 45.8023 96.7306 45.9264 95.9167 45.9264C94.7062 45.9264 93.3681 45.6574 92.1886 45.4194C91.5023 45.2849 90.8574 45.1538 90.3366 45.0986C90.0779 45.071 89.3882 45.0089 88.5364 45.0089C86.9982 45.0089 85.0255 45.2055 84.3944 46.1541C84.1426 46.5335 84.1357 47.0233 84.3806 47.6097C84.4772 47.8442 84.76 47.9856 85.0566 48.1374C85.3394 48.2788 85.6256 48.4237 85.8049 48.6686C86.005 48.9376 86.1119 49.286 86.2153 49.624C86.3395 50.0207 86.4671 50.4277 86.7223 50.645C87.0637 50.9313 87.4397 51.0658 87.9052 51.0658C88.2467 51.0658 88.6019 50.9934 88.9502 50.9244C89.3158 50.8519 89.6917 50.7795 90.0676 50.7795C90.4435 50.7795 90.7746 50.8554 91.0781 51.0106C91.7885 51.3762 92.0782 51.8557 92.361 52.3213C92.6921 52.8732 92.9818 53.3457 93.9612 53.5768C96.0029 54.0528 96.734 54.5495 97.9239 55.5946V54.0045C95.0683 51.7246 92.0161 50.1621 88.0639 48.8928L87.9087 48.8445C86.7396 48.4685 86.1843 48.027 86.2636 47.5269C86.3843 46.7612 87.9811 46.3541 89.0882 46.3541C89.5124 46.3541 89.9262 46.3714 90.1987 46.399C90.6608 46.4507 91.2781 46.5714 91.9299 46.7025C93.1715 46.9509 94.5751 47.2337 95.9132 47.2337C95.9167 47.2337 95.9167 47.2337 95.9167 47.2337C96.6754 47.2337 97.341 47.1406 97.9239 46.9578ZM96.9927 70.7333C96.834 72.8304 97.1617 74.5757 97.9239 75.7485V67.6083C97.9135 67.491 97.9066 67.3772 97.8963 67.2737C97.8307 66.5114 97.7997 66.1493 97.9239 65.9837V64.4108C97.6686 64.1797 97.4376 63.9935 97.241 63.8659C97.1513 63.8038 96.8823 63.6244 96.7789 63.6037C96.7478 63.7107 96.7927 64.0832 96.8444 64.4729C96.9823 65.5491 97.2375 67.5531 96.9927 70.7333ZM97.9239 64.0452V63.145C97.3824 62.6966 96.8237 62.2896 96.2616 61.924C95.896 61.686 95.5822 61.4825 95.458 61.4514C95.4408 61.5721 95.5097 61.9377 95.5787 62.2896C95.8236 63.583 96.3305 66.2734 96.0512 70.8919C95.865 73.9411 96.4409 76.3452 97.6721 77.6559C97.7549 77.7421 97.8376 77.8214 97.9239 77.8973V76.2313C96.9616 75.0172 96.5306 73.0719 96.7133 70.7126C96.9548 67.56 96.6995 65.5767 96.565 64.5109C96.4788 63.8314 96.4409 63.5485 96.5719 63.4037C96.6202 63.3485 96.6823 63.3209 96.7582 63.3209C96.9065 63.3209 97.0962 63.4313 97.3996 63.6313C97.5445 63.7279 97.7238 63.8693 97.9239 64.0452ZM97.9239 62.7863V61.8136C96.0408 60.2511 93.8233 58.8024 91.2885 57.3158C86.236 54.3563 81.9665 53.4389 78.1073 52.8939C77.8245 52.8525 77.5555 52.8318 77.3107 52.8318C75.7622 52.8318 75.0138 53.6355 74.0654 54.6495C73.9757 54.7461 73.8826 54.8461 73.786 54.9462C73.7826 54.9565 73.7791 54.9669 73.7791 54.9772C73.7515 55.0669 73.7274 55.16 73.7033 55.2531C73.6757 55.3635 73.6481 55.4739 73.6205 55.5877C73.5998 55.6774 73.5757 55.7705 73.555 55.8637C73.5308 55.9775 73.5067 56.0879 73.4825 56.2017C73.4619 56.2948 73.4412 56.3879 73.4205 56.4811C73.4205 56.488 73.4205 56.4949 73.417 56.4983C73.5722 56.3707 73.724 56.2396 73.8757 56.0982C75.8311 54.277 76.8209 53.7217 78.1073 53.7217C78.3384 53.7217 78.5901 53.7389 78.8833 53.7769C81.4354 54.1011 84.0944 54.8806 87.0086 56.1568C87.7018 56.4604 88.5191 56.826 89.3399 57.2606C89.4227 57.3054 89.5572 57.3641 89.7124 57.4331C90.4746 57.7642 91.1609 58.0919 91.2712 58.4989C91.316 58.6541 91.2988 58.7817 91.2264 58.8748C91.1505 58.9749 91.0264 59.0266 90.8574 59.0266C90.647 59.0266 90.4159 58.9507 90.2814 58.8748C90.0986 58.7714 89.9745 58.5989 89.8572 58.4333C89.7089 58.2229 89.5813 58.0436 89.3606 58.0229C89.1502 58.0056 89.0916 58.0919 88.9985 58.2333C88.9261 58.3402 88.8364 58.4713 88.664 58.5403C88.5708 58.5782 88.4812 58.5954 88.395 58.5954C88.1604 58.5954 87.9983 58.4713 87.8432 58.3471C87.7155 58.2505 87.5983 58.1608 87.4431 58.1333C87.15 58.0815 86.7637 58.3264 86.405 58.5713C86.1326 58.7541 85.8532 58.9404 85.5808 59.0128C84.3289 59.3439 83.2598 59.7578 82.3183 60.2787C79.2765 61.9619 78.3625 65.1248 77.9418 67.3599C77.8866 67.6566 77.79 67.9946 77.5176 67.9946C77.2072 67.9946 76.8899 67.4876 76.3174 66.5701C75.569 65.3766 74.4827 63.6382 72.9066 62.3413V63.6831C73.4308 64.0901 73.8964 64.5212 74.2102 64.9972C75.7415 67.3151 76.4209 69.8365 76.2347 72.4855C76.0691 74.7999 75.2345 77.0799 73.824 79.0804C73.5619 79.4564 73.248 79.8186 72.9066 80.1807V81.8846C73.0618 81.7053 73.2273 81.519 73.3998 81.3224C75.0931 79.3943 77.1969 76.9971 77.2796 76.39C77.321 76.0796 77.1865 75.8381 77.0451 75.5829C76.8865 75.2932 76.7071 74.9655 76.8037 74.5343C76.8761 74.1963 77.083 73.9997 77.2658 73.8272C77.4865 73.6203 77.6935 73.4237 77.7004 72.9649C77.7038 72.7959 77.5521 72.4441 77.39 72.0716C77.2244 71.6887 77.0382 71.2541 76.952 70.8678C76.8451 70.3642 76.9382 70.0227 77.2348 69.8468C77.3107 69.802 77.3865 69.7778 77.4624 69.7778C78.1108 69.7778 78.4901 71.299 78.8523 72.9891C78.9212 73.3202 78.9833 73.603 79.0178 73.6893C79.7903 75.6381 81.3733 77.6593 82.9701 79.553C84.2668 81.0948 85.7118 83.4816 85.5118 85.1304C85.4428 85.7133 85.1738 86.1789 84.7186 86.51C84.3565 86.7756 83.9185 86.9067 83.415 86.9067C82.0941 86.9067 80.5594 86.0134 79.3247 85.2959C79.0454 85.1338 78.7902 84.9855 78.5591 84.8613C78.1487 84.6371 77.5728 84.5302 76.7968 84.5302C75.7898 84.5302 74.6241 84.7164 73.5964 84.882C73.3584 84.92 73.1273 84.9544 72.9066 84.9889V85.8099C73.993 85.5753 75.1242 85.3925 76.1795 85.3925C77.1624 85.3925 77.9728 85.5443 78.6591 85.8581C79.3282 86.1617 79.8869 86.5963 80.4249 87.0171C81.2802 87.6793 82.0872 88.3071 83.1977 88.3071C83.3149 88.3071 83.4356 88.3002 83.5564 88.2864C84.622 88.1657 85.6291 87.431 86.1188 86.4135C86.5671 85.4787 86.8085 83.8886 85.3945 81.619C84.7669 80.6153 84.0875 79.6047 83.4288 78.6286C81.5388 75.8174 79.7489 73.1615 79.0075 70.4849C78.6039 69.0328 78.5522 67.7187 78.8488 66.4666C79.1764 65.0662 79.9317 63.7796 81.1491 62.5345C83.1425 60.4994 85.7774 59.3301 88.3812 59.3301C90.3504 59.3301 92.1093 60.0234 93.3301 61.2858C94.6751 62.669 95.3442 64.6868 95.2718 67.1185C95.2545 67.6738 95.2269 68.2464 95.1993 68.8535C95.1028 70.9989 94.989 73.4306 95.3338 75.4449C95.7063 77.611 96.5547 78.9838 97.9239 79.6357V78.2595C97.7652 78.1388 97.6135 78.0008 97.4686 77.8456C96.1822 76.4797 95.5787 74.0032 95.7684 70.8747C96.0477 66.2907 95.5442 63.6244 95.2994 62.3413C95.1752 61.6722 95.1235 61.3962 95.2442 61.2479C95.4166 61.041 95.7098 61.2307 96.4133 61.686C96.8237 61.9515 97.3445 62.3206 97.9239 62.7863ZM97.9239 89.3522C97.51 89.1797 97.0927 89.0487 96.6789 89.0487C96.3512 89.0487 96.0512 89.128 95.7546 89.2901C95.4649 89.4522 94.8959 90.3111 94.8959 90.9699C94.8993 91.2182 94.9786 91.3804 95.1407 91.47C95.1821 91.4907 95.22 91.5011 95.2614 91.5011C95.4718 91.5011 95.7373 91.2389 95.9512 91.0251C96.1098 90.8664 96.2616 90.7181 96.403 90.6491C96.5788 90.5663 96.7444 90.5249 96.9099 90.5249C97.2238 90.5249 97.4893 90.6733 97.7445 90.8181C97.8032 90.8526 97.8652 90.8837 97.9239 90.9147V89.3522ZM97.9239 89.0107V87.9967C96.8065 87.6759 95.8925 87.3241 95.3959 87.0826C95.0648 86.9205 94.8372 86.8412 94.7027 86.8412C94.5441 86.8412 94.5234 86.9791 94.4958 87.5241C94.4786 87.9518 94.451 88.5347 94.2406 89.2108C93.8681 90.4111 93.4439 91.3148 93.137 91.9771C92.8542 92.5841 92.63 93.0636 92.7266 93.2153C92.7576 93.2636 92.8576 93.3223 93.1646 93.3223C93.3094 93.3223 93.4888 93.3085 93.7129 93.2843C93.944 93.2567 95.7891 93.0601 97.9239 93.0153V91.2665C97.9101 91.2596 97.8963 91.2562 97.8859 91.2493C97.7825 91.201 97.6859 91.1458 97.5928 91.0941C97.2065 90.8768 96.9272 90.7457 96.5375 90.932C96.4443 90.9802 96.3064 91.1148 96.1719 91.2458C95.9029 91.5149 95.5994 91.8184 95.2614 91.8184C95.1649 91.8184 95.0752 91.7943 94.989 91.746C94.7234 91.6011 94.582 91.3321 94.582 90.9734C94.582 90.2559 95.1545 89.2625 95.6028 89.0176C95.9443 88.8245 96.2995 88.7348 96.6789 88.7348C97.1065 88.7348 97.5203 88.8521 97.9239 89.0107ZM97.9239 87.7035V86.9895C97.1962 86.7584 96.4823 86.4687 95.7718 86.1099C95.4373 85.9409 95.12 85.7581 94.8407 85.5994C94.3475 85.3132 93.8819 85.0476 93.6405 85.0476C93.5853 85.0476 93.4784 85.0476 93.4715 85.3546C93.4715 85.3994 93.4784 85.4718 93.4888 85.5684C93.5405 86.0961 93.6577 87.3034 93.2473 88.8693C92.7369 90.8078 91.5988 92.6531 89.8607 94.3536C89.2433 94.9572 89.3054 95.14 89.3089 95.1469C89.3192 95.1745 89.3813 95.1987 89.4951 95.1987C89.6296 95.1987 89.8055 95.1642 89.9917 95.0986C92.2438 94.3191 94.8407 93.9328 97.9239 93.9086V93.2947C95.7201 93.343 93.8336 93.5534 93.744 93.5637C93.5095 93.5879 93.3198 93.6017 93.1646 93.6017C92.8025 93.6017 92.5921 93.5292 92.4886 93.3671C92.3093 93.0843 92.5128 92.6497 92.8818 91.8564C93.1887 91.1975 93.606 90.3042 93.9716 89.128C94.1716 88.4865 94.1958 87.9242 94.2164 87.5138C94.2406 86.9791 94.2578 86.5583 94.7027 86.5583C94.889 86.5583 95.1338 86.6411 95.5201 86.8274C96.0029 87.0619 96.8685 87.3999 97.9239 87.7035ZM97.9239 86.6963V85.6822C97.341 85.4649 96.7651 85.2097 96.1926 84.9027C89.7089 81.4466 89.6193 75.0207 90.1159 70.4918C90.2642 69.1501 90.0607 68.0981 89.5503 67.5255C89.2571 67.1978 88.8605 67.0323 88.3743 67.0323C87.2224 67.0323 85.7636 67.9842 85.2118 69.8054C84.7186 71.4335 86.1705 73.2685 87.8501 75.3932C90.0538 78.1836 92.799 81.6501 92.261 86.3272C92.1058 87.6621 91.7506 88.9349 91.1988 90.1076C90.3263 91.9633 89.1709 93.5396 87.7638 94.7951C86.8361 95.6229 85.9119 96.1955 85.2359 96.6163H85.2324C84.86 96.8508 84.4358 97.113 84.3668 97.2268C84.3875 97.2406 84.4289 97.2613 84.5117 97.282C84.6013 97.3061 84.7807 97.3165 85.0014 97.3165C85.4946 97.3165 87.3224 97.244 90.1883 96.299C92.5404 95.5229 95.2752 95.0848 97.9239 95.0607V94.1915C94.8717 94.2122 92.3024 94.595 90.0848 95.3642C89.871 95.4401 89.6606 95.4815 89.4951 95.4815C89.202 95.4815 89.0916 95.3573 89.0502 95.2538C88.9502 95.0089 89.1433 94.6571 89.6641 94.1501C92.3162 91.5597 93.5095 88.6865 93.2094 85.6098C93.1991 85.4925 93.1922 85.4063 93.1922 85.3511C93.1956 84.8682 93.4405 84.7647 93.6405 84.7647C93.9578 84.7647 94.4096 85.0269 94.9821 85.3546C95.258 85.5132 95.5718 85.6926 95.896 85.8581C96.5685 86.1962 97.2375 86.4721 97.9239 86.6963ZM97.9239 85.3821V84.4716C97.5203 84.3094 97.1203 84.1232 96.7237 83.9128C90.9056 80.8085 90.7332 75.1759 91.2333 70.6126C91.4195 68.9259 91.1264 67.5979 90.3883 66.777C89.8779 66.2079 89.1813 65.9078 88.3743 65.9078C86.8051 65.9078 84.8462 67.1323 84.1357 69.4778C83.4701 71.6715 85.091 73.7203 86.9672 76.0934C89.1537 78.8562 91.6264 81.9847 91.1436 86.1962C90.9022 88.283 90.14 90.2869 89.0985 91.5597C88.2743 92.5669 87.5535 92.6566 86.7878 92.7497C86.2602 92.8152 85.7153 92.8808 85.0876 93.2809C84.6462 93.5603 84.4979 94.0742 84.3392 94.6157C84.2185 95.0365 84.0909 95.4677 83.8254 95.8368C83.6391 96.0955 83.3391 96.1472 83.077 96.192C82.7597 96.2472 82.4872 96.2955 82.3389 96.6163C82.2458 96.8163 82.3941 97.1026 82.5493 97.4027L82.4665 97.4475L82.5528 97.4027C82.7114 97.7131 82.8804 98.0339 82.8218 98.3478C82.7942 98.4996 82.6907 98.6893 82.5562 98.9066H85.2428C85.5221 98.6548 85.7636 98.4651 85.9567 98.3754C87.5121 97.6717 89.6331 97.3372 91.5057 97.044C92.2369 96.9302 92.9301 96.8232 93.5646 96.6991C95.0407 96.4093 96.4616 96.2645 97.7928 96.2645C97.8376 96.2645 97.879 96.2645 97.9239 96.2645V95.3401C95.3063 95.3677 92.599 95.7988 90.2745 96.5645C87.3707 97.5234 85.5049 97.5993 85.0014 97.5993C84.8289 97.5993 84.5875 97.5924 84.4427 97.5545C84.2978 97.5165 84.1047 97.4475 84.0806 97.2751C84.0426 97.0267 84.391 96.8094 85.0876 96.3783C85.7532 95.9609 86.6671 95.3953 87.5776 94.5847C88.9537 93.3568 90.0883 91.8081 90.9436 89.9869C91.4816 88.8417 91.8299 87.6 91.9817 86.2927C92.5059 81.7329 89.802 78.3181 87.6293 75.5725C85.9015 73.3823 84.4047 71.4956 84.9428 69.7227C85.5359 67.7704 87.1155 66.7494 88.3743 66.7494C88.9433 66.7494 89.4089 66.9495 89.7607 67.3392C90.3263 67.9705 90.5504 69.0984 90.3952 70.5229C89.909 74.9724 89.9917 81.2776 96.3271 84.6544C96.8547 84.9372 97.3858 85.1752 97.9239 85.3821ZM97.9239 98.9066V98.5375C95.5304 98.2995 93.099 98.4237 90.6884 98.9066H97.9239ZM97.9239 98.1891V96.5921C97.879 96.5921 97.8376 96.5887 97.7928 96.5887C96.4823 96.5887 95.0786 96.7336 93.6302 97.0198C92.9921 97.144 92.3058 97.2509 91.5781 97.3648C89.7055 97.658 87.6052 97.9856 86.0912 98.672C85.9981 98.7169 85.8774 98.7996 85.7463 98.9066H89.1468C92.061 98.1443 95.02 97.9028 97.9239 98.1891ZM97.9239 84.1197V83.454C91.623 81.3017 91.8437 74.8275 92.5645 68.8948C92.7749 67.1737 92.4576 65.7802 91.6506 64.8661C90.9712 64.1039 89.9434 63.6831 88.7502 63.6831C86.5188 63.6831 83.6702 65.218 82.7873 68.0601C81.7734 71.33 83.8771 74.0376 86.1015 76.9074C88.4467 79.9289 90.8712 83.0539 89.4986 86.9619C88.7088 89.2108 85.7567 92.153 83.2736 92.4358H83.277C83.1322 92.4496 82.9908 92.46 82.8528 92.46C81.4975 92.46 80.5628 91.7115 79.5765 90.9216C78.8488 90.3387 78.1004 89.742 77.1658 89.4626C77.0279 89.4212 76.8485 89.4005 76.6347 89.4005C75.7656 89.4005 74.4482 89.7351 72.9066 90.1559V92.2703C73.386 92.1633 73.8861 92.053 74.4103 91.9426C74.8483 91.846 75.338 91.7977 75.8622 91.7977C77.5728 91.7977 79.8041 92.3634 80.6594 93.6017C81.0629 94.1811 81.1284 94.8399 80.8594 95.5574C80.3732 96.8405 78.3074 97.9339 76.3761 98.9066H82.17C82.3355 98.6513 82.4769 98.4237 82.501 98.2857C82.539 98.0857 82.3976 97.8166 82.2631 97.5545C82.0837 97.213 81.8803 96.8232 82.0424 96.4783C82.2631 96.0023 82.6838 95.9299 83.0183 95.8713C83.2529 95.8299 83.4529 95.7954 83.5598 95.647C83.7943 95.3228 83.9116 94.9193 84.0254 94.5261C84.2013 93.9224 84.3668 93.3499 84.9152 93.0049C85.6049 92.5669 86.1843 92.4945 86.7464 92.4255C87.4776 92.3358 88.1053 92.2565 88.8467 91.3528C89.8469 90.1248 90.5849 88.1829 90.8194 86.1582C91.2885 82.0812 88.8571 79.008 86.712 76.2969C84.7772 73.8514 83.108 71.7404 83.8219 69.3812C84.5806 66.8839 86.6878 65.5801 88.3743 65.5801C89.2778 65.5801 90.0573 65.9182 90.6332 66.5563C91.4333 67.4531 91.754 68.8672 91.5609 70.647C91.0712 75.1069 91.2333 80.6119 96.8789 83.623C97.2238 83.8093 97.5721 83.9714 97.9239 84.1197ZM72.9411 60.2718C73.1929 60.5684 73.6136 60.8823 74.2137 61.2134C75.4414 61.886 76.176 63.2071 76.6623 64.0797C76.8485 64.4177 77.1072 64.8799 77.2106 64.8972C77.2072 64.8972 77.2934 64.8489 77.4107 64.3764C77.8314 62.669 79.2178 60.4063 81.3733 59.2025C83.5322 57.9987 84.9703 57.6849 85.7429 57.5193C85.9429 57.4745 86.1464 57.4331 86.2222 57.3951C85.936 57.0743 83.2942 55.7119 79.7662 55.4256L79.6041 55.4153C79.2592 55.3842 78.9695 55.3601 78.6936 55.3601C77.7418 55.3601 76.9692 55.6326 75.138 57.1778C74.8379 57.4331 74.5206 57.6745 74.2447 57.8884C73.7757 58.2471 73.3411 58.5817 73.048 58.9059C73.0446 58.9369 73.0411 58.968 73.0377 58.999C73.0273 59.1197 73.017 59.2405 73.0066 59.3612C72.9997 59.4543 72.9894 59.5474 72.9825 59.6406C72.9721 59.7682 72.9652 59.8958 72.9583 60.02C72.9514 60.1028 72.9445 60.1855 72.9411 60.2718ZM72.9066 61.9757C74.6137 63.3174 75.7691 65.1628 76.5519 66.4183C76.9313 67.0254 77.3624 67.7118 77.5176 67.7118C77.5176 67.7118 77.5935 67.6842 77.6659 67.3082C78.097 65.0179 79.035 61.7722 82.1803 60.0338C83.146 59.4991 84.2358 59.0783 85.5083 58.7403C85.736 58.6817 85.9843 58.5161 86.2464 58.3368C86.605 58.0953 86.9775 57.8435 87.3534 57.8435C87.4017 57.8435 87.4465 57.847 87.4948 57.8573C87.7155 57.8953 87.8742 58.0194 88.0156 58.1264C88.1949 58.2678 88.3398 58.3643 88.5605 58.2781C88.6502 58.2436 88.7019 58.1712 88.764 58.0781C88.8674 57.9194 89.0088 57.7124 89.3847 57.7435C89.7365 57.7745 89.9227 58.0367 90.0883 58.2712C90.1883 58.4126 90.2918 58.5575 90.4194 58.6299C90.5194 58.6851 90.7091 58.7438 90.8574 58.7438C90.9436 58.7438 90.9884 58.7265 91.0022 58.7058C91.0195 58.6851 91.0195 58.6368 91.0022 58.5748C90.916 58.2643 90.0676 57.8953 89.6089 57.6952C89.4434 57.6228 89.302 57.5607 89.2054 57.5124C88.395 57.0812 87.5845 56.7156 86.8982 56.4155C84.0081 55.1531 81.3733 54.3805 78.8454 54.0563C78.5695 54.0218 78.328 54.0045 78.1073 54.0045C76.9072 54.0045 75.9622 54.5426 74.0654 56.3052C73.824 56.5294 73.5791 56.7363 73.3343 56.9364C73.3239 56.9916 73.3136 57.0467 73.3032 57.1019C73.2825 57.2192 73.2653 57.333 73.2446 57.4503C73.2308 57.5434 73.2135 57.6366 73.1997 57.7297C73.1825 57.847 73.1653 57.9642 73.148 58.085C73.1377 58.1781 73.1239 58.2678 73.1101 58.3609C73.1066 58.3954 73.1032 58.4264 73.0997 58.4575C73.3791 58.1988 73.7136 57.9401 74.0723 57.6676C74.362 57.4434 74.6655 57.2123 74.9586 56.964C76.852 55.3635 77.6728 55.0807 78.6936 55.0807C78.9868 55.0807 79.2971 55.1048 79.6282 55.1324L79.7869 55.1462C83.6495 55.4567 86.3085 56.9502 86.4809 57.264C86.5257 57.3503 86.5326 57.4296 86.5016 57.5055C86.4326 57.6573 86.236 57.7021 85.8049 57.7952C85.0428 57.9573 83.6322 58.2678 81.5112 59.4509C79.4316 60.6098 78.0901 62.7932 77.6866 64.4419C77.59 64.8248 77.4693 65.18 77.2106 65.18H77.2072C76.952 65.18 76.7623 64.8385 76.4174 64.2177C75.945 63.3726 75.2345 62.0964 74.0792 61.4583C73.5791 61.1824 73.1998 60.9202 72.9273 60.665C72.9273 60.6822 72.9239 60.6995 72.9239 60.7167C72.9239 60.7892 72.917 60.8616 72.917 60.9375C72.9101 61.1548 72.9066 61.3721 72.9066 61.5894V61.9757ZM77.559 76.4314C77.4624 77.1212 75.507 79.3494 73.6136 81.5052C73.386 81.7674 73.1446 82.0398 72.9066 82.3123V84.7061C73.1101 84.6751 73.3239 84.6406 73.5481 84.6061C74.5862 84.4371 75.7656 84.2474 76.7968 84.2474C77.621 84.2474 78.2418 84.3681 78.6936 84.6164C78.9281 84.7406 79.1902 84.8924 79.4661 85.0545C80.6697 85.7547 82.17 86.6273 83.415 86.6273C83.8564 86.6273 84.2392 86.5135 84.553 86.2859C84.9428 85.9996 85.1738 85.5994 85.2359 85.0959C85.4221 83.5368 84.015 81.2327 82.7528 79.7358C81.1422 77.8249 79.542 75.7795 78.7557 73.7962C78.7143 73.6858 78.6591 73.434 78.5764 73.0546C78.4005 72.2337 77.9349 70.0607 77.4624 70.0607C77.4383 70.0607 77.4107 70.071 77.3796 70.0883C77.3107 70.1297 77.1072 70.2504 77.2279 70.8092C77.3072 71.1679 77.4865 71.5887 77.6486 71.9578C77.8383 72.3958 77.9866 72.7373 77.9832 72.9718C77.9763 73.5479 77.7004 73.8065 77.459 74.0342C77.2865 74.1998 77.1348 74.3412 77.0796 74.5964C77.0072 74.9241 77.1382 75.1655 77.2934 75.4449C77.4417 75.7174 77.6107 76.0278 77.559 76.4314ZM72.9066 76.2003C74.1861 73.4547 74.4551 69.6502 72.9066 67.0667V76.2003ZM72.9066 79.7668C73.1584 79.4874 73.3929 79.2046 73.5929 78.9183C75.9588 75.5691 77.3038 70.1917 73.9757 65.1524C73.7171 64.7592 73.3377 64.3936 72.9066 64.0452V66.4907C74.9241 69.3363 74.5379 73.9066 72.9066 76.897V79.7668ZM72.9066 97.0612C73.0618 97.0302 73.2204 96.975 73.3687 96.8819C74.2861 96.3128 74.5034 95.7091 74.4275 95.4436C74.3654 95.2159 74.1171 95.1676 73.924 95.1676C73.6515 95.1676 73.2998 95.2676 72.9066 95.4504V97.0612ZM72.9066 98.5134C73.5481 98.1236 74.3068 97.7407 75.138 97.3234C76.0105 96.8853 77.2382 95.7816 77.1693 94.9262C77.1348 94.495 76.7623 94.1639 76.0657 93.9431C75.776 93.85 75.4587 93.8086 75.0931 93.8086C74.4034 93.8086 73.6412 93.9742 72.9066 94.1708V95.1435C73.2894 94.9779 73.6377 94.8882 73.924 94.8882C74.3309 94.8882 74.6137 95.0607 74.7 95.3642C74.8241 95.7988 74.5034 96.5094 73.517 97.1199C73.317 97.244 73.1066 97.313 72.9066 97.351V98.5134ZM97.9239 83.0815V81.7432C93.4232 80.1531 93.4784 75.783 93.5301 71.5508C93.575 68.136 93.6198 64.6006 91.2436 62.5862C90.4504 61.9171 90.2124 61.7136 89.9572 61.7136C89.8503 61.7136 89.7227 61.7446 89.5434 61.7894C89.2433 61.8619 88.8364 61.9619 88.1432 62.0274C87.6293 62.0757 87.2672 62.0895 86.9775 62.0999C86.0601 62.1309 86.0602 62.1309 84.6841 63.3761L84.6669 63.3933C84.2392 63.7796 83.646 64.0556 83.0183 64.3453C82.1424 64.7558 81.2353 65.1766 80.925 65.8906C80.4904 66.8943 80.8974 69.8399 81.1629 71.1092C81.4733 72.5959 82.4355 73.9825 83.2874 75.2069L83.4701 75.4691C83.7633 75.8933 84.0702 76.3245 84.3703 76.7418L84.3979 76.7763C86.2291 79.3219 88.1225 81.9536 88.0742 85.2614C88.0432 87.4482 85.6566 90.0248 83.4322 90.2801C83.2874 90.2938 83.146 90.3042 83.008 90.3042C81.6802 90.3042 80.7594 89.5868 79.78 88.8245C79.204 88.3761 78.6039 87.9104 77.9073 87.5931C77.3038 87.3172 76.5899 87.1861 75.7277 87.1861C74.8414 87.1861 73.8792 87.331 72.9066 87.5414V89.7972C74.431 89.3833 75.7415 89.0521 76.6347 89.0521C76.8865 89.0521 77.0899 89.0797 77.2658 89.1315C78.2625 89.4281 79.0385 90.049 79.7903 90.6491C80.7318 91.4011 81.6182 92.1116 82.8528 92.1116C82.977 92.1116 83.108 92.1047 83.2356 92.0909C85.598 91.8219 88.4122 89.0004 89.1709 86.8481C90.4814 83.116 88.1156 80.0703 85.8291 77.1212C83.646 74.3067 81.3871 71.399 82.4562 67.9601C83.3874 64.9558 86.3947 63.3347 88.7502 63.3347C90.0435 63.3347 91.1643 63.7969 91.9092 64.6385C92.7852 65.625 93.1301 67.1116 92.9094 68.9397C92.2093 74.693 91.9851 80.9671 97.9239 83.0815ZM97.9239 81.4086V79.9462C96.3961 79.277 95.458 77.8214 95.0579 75.4932C94.7062 73.4513 94.82 71.0058 94.92 68.8465V68.8052C94.9476 68.2153 94.9752 67.6531 94.989 67.1116C95.0614 64.7558 94.4165 62.8104 93.1301 61.4825C91.961 60.2787 90.2745 59.613 88.3812 59.613C85.8532 59.613 83.2908 60.7512 81.3526 62.7311C79.1178 65.011 78.4591 67.4531 79.2765 70.409C80.0076 73.0443 81.7837 75.6795 83.6633 78.4699C84.3289 79.4564 85.0083 80.467 85.6325 81.4707C87.1155 83.8507 86.8534 85.5408 86.3705 86.5376C85.8394 87.6379 84.7462 88.4347 83.5874 88.5658C83.4563 88.5796 83.3253 88.5899 83.1977 88.5899C81.9906 88.5899 81.1457 87.9346 80.2559 87.2413C79.7248 86.8274 79.1799 86.4031 78.5419 86.1134C77.9038 85.8237 77.1072 85.6753 76.1795 85.6753C75.1276 85.6753 73.993 85.8616 72.9066 86.0996V87.2206C73.8757 87.0136 74.8345 86.8688 75.7277 86.8688C76.6347 86.8688 77.39 87.0136 78.0349 87.3068C78.7695 87.6414 79.3799 88.1139 79.9731 88.5761C80.9077 89.3039 81.7906 89.9903 83.008 89.9903C83.1322 89.9903 83.2667 89.98 83.3977 89.9662C85.4877 89.7282 87.7293 87.3068 87.7604 85.258C87.8052 82.0502 85.9429 79.4633 84.1426 76.9626L84.1254 76.9384C83.8219 76.5142 83.5081 76.0796 83.2115 75.6484L83.0287 75.3863C82.1631 74.1377 81.1802 72.72 80.856 71.1713C80.5835 69.871 80.1731 66.8391 80.6387 65.7629C80.9939 64.942 81.9561 64.4936 82.8873 64.0625C83.4908 63.7796 84.0633 63.514 84.453 63.1622L84.4737 63.1415C85.9084 61.8446 85.9325 61.8205 86.9672 61.7825C87.2534 61.7756 87.6086 61.7618 88.1156 61.7136C88.7812 61.6515 89.1778 61.5549 89.4675 61.4825C90.2124 61.2996 90.2814 61.3583 91.4471 62.3482C93.9371 64.4557 93.8888 68.0636 93.8474 71.5542C93.8198 73.7065 93.7888 75.9278 94.3716 77.7249C94.9545 79.5288 96.1202 80.736 97.9239 81.4086ZM97.9239 61.4445V60.1786C96.1512 58.7714 94.2302 57.4848 92.2576 56.2189C86.9051 52.7835 81.7975 51.835 77.4314 51.2176C77.121 51.1727 76.8278 51.152 76.5588 51.152C75.9415 51.152 75.438 51.2693 75 51.4728C74.9655 51.5556 74.9276 51.6349 74.8965 51.7142C74.8517 51.8177 74.8103 51.9212 74.7689 52.0281C74.731 52.1143 74.6965 52.2006 74.662 52.2868C74.6206 52.3937 74.5827 52.4972 74.5413 52.6041C74.5103 52.6904 74.4758 52.7801 74.4413 52.8697C74.4034 52.9732 74.3689 53.0801 74.3309 53.1871C74.2999 53.2767 74.2689 53.3664 74.2378 53.4561C74.1999 53.563 74.1654 53.67 74.1309 53.7769C74.1033 53.8666 74.0723 53.9562 74.0447 54.0494C74.0137 54.1528 73.9826 54.2563 73.9516 54.3598C74.9069 53.3388 75.6932 52.5524 77.3107 52.5524C77.5693 52.5524 77.8521 52.5731 78.1453 52.6145C82.0354 53.1664 86.336 54.0873 91.4333 57.0743C93.8992 58.5196 96.0684 59.9338 97.9239 61.4445ZM97.9239 59.7785V58.5506C95.1476 56.4604 91.8816 54.5323 88.0708 52.7283L87.788 52.5938C85.0462 51.3003 82.2182 49.962 79.2489 49.2239C79.0764 49.1825 78.8833 49.1308 78.6798 49.0756C78.0039 48.8962 77.2175 48.6927 76.4726 48.5927C76.4485 48.6341 76.4243 48.6755 76.3967 48.7169C76.3519 48.7962 76.3036 48.8755 76.2588 48.9549C76.2036 49.0549 76.1484 49.1515 76.0933 49.2515C76.0484 49.3308 76.0036 49.4102 75.9622 49.4929C75.907 49.5895 75.8553 49.6895 75.8036 49.7896C75.7587 49.8724 75.7173 49.9551 75.676 50.0379C75.6242 50.1345 75.5759 50.238 75.5242 50.338C75.4828 50.4208 75.4414 50.5036 75.4035 50.5898C75.3518 50.6898 75.3069 50.7898 75.2587 50.8933C75.2345 50.9451 75.2104 51.0002 75.1862 51.0554C75.5828 50.9175 76.0277 50.8381 76.5588 50.8381C76.8451 50.8381 77.152 50.8623 77.4728 50.9071C81.8734 51.5314 87.0224 52.4869 92.43 55.9568C94.3337 57.1778 96.196 58.423 97.9239 59.7785ZM77.7349 46.6715C77.6969 46.7198 77.6624 46.7715 77.6245 46.8198C78.0315 46.9922 78.4453 47.1475 78.8661 47.2164C79.7903 47.3613 80.0662 47.2371 80.149 47.1509C80.1869 47.1095 80.2007 47.0612 80.1973 46.9888C80.1731 46.5749 79.5179 45.8195 78.9281 45.1435C78.904 45.1711 78.8798 45.1986 78.8592 45.2262C78.8005 45.2952 78.7419 45.3642 78.6867 45.4332C78.6143 45.5194 78.5419 45.6091 78.4729 45.6988C78.4177 45.7678 78.3591 45.8402 78.3039 45.9092C78.2349 45.9989 78.166 46.0886 78.097 46.1782C78.0418 46.2507 77.9866 46.3231 77.9349 46.3955C77.8659 46.4852 77.8004 46.5783 77.7349 46.6715ZM79.2558 44.764C79.2075 44.8192 79.1592 44.871 79.1109 44.9262C79.8007 45.716 80.449 46.4576 80.4801 46.9715C80.487 47.1199 80.4456 47.2475 80.3525 47.3441C80.2145 47.4924 79.9627 47.5648 79.5937 47.5648C79.3834 47.5648 79.1213 47.5407 78.8212 47.4924C78.3487 47.4165 77.8969 47.244 77.4624 47.0543C77.4348 47.0923 77.4072 47.1302 77.3831 47.1682C77.3314 47.244 77.2796 47.3199 77.2279 47.3958C77.1658 47.4889 77.1037 47.5821 77.0417 47.6752C77.0382 47.6855 77.0313 47.6959 77.0244 47.7028C78.4832 48.1339 80.1283 48.4996 81.1422 48.4996C81.5664 48.4996 81.763 48.434 81.8561 48.3788C82.1527 48.2029 82.3079 48.0201 82.3286 47.8235C82.3803 47.3648 81.7251 46.7439 81.0353 46.0816C80.518 45.5919 79.9662 45.0607 79.5213 44.464C79.5075 44.4778 79.4937 44.495 79.4799 44.5088C79.4041 44.5916 79.3282 44.6778 79.2558 44.764ZM97.9239 58.1195V56.0568C96.634 54.9117 95.9684 54.4012 93.8854 53.9148C92.7611 53.6527 92.4058 53.0663 92.061 52.5007C91.8058 52.0764 91.5402 51.6418 90.916 51.3176C90.6677 51.19 90.3883 51.1279 90.0676 51.1279C89.7262 51.1279 89.3641 51.1969 89.0157 51.2658C88.6536 51.3383 88.2777 51.4142 87.9052 51.4142C87.3534 51.4142 86.9085 51.252 86.5016 50.9106C86.1636 50.6277 86.0222 50.1724 85.8843 49.7275C85.7877 49.4171 85.6877 49.0928 85.5256 48.8721C85.398 48.6962 85.1462 48.5685 84.9014 48.4478C84.5599 48.2719 84.2047 48.0926 84.0599 47.7442C83.7702 47.0405 83.784 46.4404 84.1082 45.9609C84.8255 44.8848 86.912 44.6606 88.5364 44.6606C89.402 44.6606 90.109 44.7261 90.3711 44.7537C90.9125 44.8123 91.5644 44.94 92.2576 45.0814C93.4232 45.3125 94.7407 45.5781 95.9167 45.5781C96.7547 45.5781 97.4169 45.4435 97.9239 45.1676V43.3257C97.8928 43.5982 97.7583 43.8224 97.4652 43.9707C97.2031 44.1018 96.8513 44.1501 96.3581 44.1294C95.4718 44.0914 94.6027 43.85 93.7681 43.6189C93.1956 43.4602 92.6093 43.2981 92.0334 43.205C89.8676 42.8566 87.8569 42.9222 86.0498 43.4085C85.9877 43.4257 85.9291 43.443 85.867 43.4568C85.2359 43.6361 84.6427 43.8845 84.0702 44.1225C83.2253 44.4743 82.501 44.7778 81.863 44.7778C81.1595 44.7778 80.6594 44.4088 80.3249 43.6155C80.3214 43.6189 80.3214 43.6189 80.318 43.6224C80.2387 43.7017 80.1593 43.7845 80.08 43.8672C80.0179 43.9293 79.9559 43.9949 79.8938 44.0604C79.842 44.1156 79.7903 44.1708 79.7386 44.226C80.1731 44.8227 80.7318 45.3608 81.2526 45.854C82.0355 46.599 82.7114 47.244 82.6424 47.858C82.6079 48.1615 82.4045 48.4202 82.0182 48.6513C81.8354 48.7583 81.5388 48.8134 81.1422 48.8134C80.08 48.8134 78.3522 48.4271 76.8485 47.9787C76.8037 48.0477 76.7589 48.1201 76.714 48.1926C76.6968 48.2167 76.683 48.2443 76.6657 48.2685C77.3865 48.3754 78.1177 48.5685 78.7488 48.7341C78.9695 48.7962 79.1592 48.8445 79.3316 48.8893C82.3355 49.6309 85.1807 50.9761 87.9328 52.2799L88.2191 52.4144C91.9575 54.1839 95.1752 56.0741 97.9239 58.1195ZM80.7525 43.1946C80.7008 43.2464 80.6456 43.2981 80.5939 43.3533C80.8732 44.088 81.2836 44.4295 81.863 44.4295C82.4355 44.4295 83.1322 44.1397 83.9357 43.8017C84.5289 43.5568 85.1255 43.3085 85.7739 43.1257C85.836 43.1084 85.8981 43.0912 85.9601 43.0739C87.8156 42.5772 89.8745 42.5048 92.0886 42.8635C92.6818 42.9601 93.2784 43.1257 93.8509 43.2843C94.6786 43.512 95.5235 43.7465 96.3719 43.7845C96.7961 43.8017 97.1099 43.7603 97.31 43.6603C97.7928 43.4188 97.5824 42.8049 97.1962 41.8184C96.9789 41.2596 96.7513 40.6802 96.7133 40.1421C96.6099 38.6865 96.9961 37.3172 97.61 36.0754C97.5859 36.0754 97.5617 36.0789 97.5376 36.0789C97.4238 36.0823 97.31 36.0858 97.1996 36.0927C97.0962 36.0961 96.9927 36.103 96.8892 36.1099C96.8237 36.1134 96.7582 36.1168 96.6926 36.1203C96.0684 37.5241 95.8029 38.8762 95.8994 40.2007C95.965 41.1148 95.8443 41.7322 95.527 42.0874C95.3097 42.3289 95.0062 42.4462 94.6062 42.4462C94.0992 42.4462 93.4957 42.2599 92.8611 42.0633C92.2989 41.8908 91.7264 41.7115 91.1953 41.6563C90.7884 41.6115 90.3814 41.5873 89.9469 41.5873C88.5743 41.5873 87.2638 41.8081 85.8739 42.0426L85.8291 42.0495C85.6084 42.084 85.3876 42.1219 85.1635 42.1599C84.6496 42.2427 84.084 42.3358 83.5288 42.3358H83.5253C82.9321 42.3358 82.4562 42.222 82.0837 42.0012C82.0044 42.0667 81.932 42.1323 81.8561 42.1944C81.7871 42.253 81.7182 42.3116 81.6526 42.3703C81.5664 42.4462 81.4802 42.522 81.3974 42.5979C81.3285 42.6566 81.2629 42.7187 81.1974 42.7773C81.1146 42.8532 81.0319 42.9325 80.9491 43.0118C80.8836 43.0705 80.818 43.1326 80.7525 43.1946ZM82.5907 41.5908C82.5079 41.6528 82.4252 41.7184 82.3458 41.7874C82.6562 41.9426 83.0494 42.0219 83.5288 42.0219C84.0564 42.0219 84.6082 41.9322 85.091 41.8529C85.3083 41.8184 85.5014 41.7839 85.6946 41.7529L85.8222 41.7322C87.2258 41.4976 88.5501 41.2734 89.9469 41.2734C90.3918 41.2734 90.8125 41.2976 91.2298 41.3424C91.792 41.4045 92.3783 41.5873 92.9473 41.7632C93.5646 41.9529 94.144 42.1323 94.6062 42.1323C94.9131 42.1323 95.1373 42.0495 95.2925 41.877C95.5477 41.5908 95.6442 41.0492 95.5856 40.2214C95.489 38.8935 95.7408 37.5448 96.3409 36.1479C96.3098 36.1513 96.2788 36.1513 96.2478 36.1548C96.1339 36.1651 96.0201 36.1755 95.9098 36.1858C95.8098 36.1962 95.7098 36.2065 95.6097 36.2169C95.5442 36.2238 95.4821 36.2307 95.4166 36.241C95.1442 36.955 94.9372 37.6862 94.7993 38.4485C94.6303 39.366 94.3716 39.8868 93.9336 40.1938C93.5646 40.4456 93.0784 40.5491 92.2541 40.5491C92.1196 40.5491 91.9713 40.5456 91.8023 40.5422C91.3195 40.5249 90.8746 40.518 90.4401 40.518C88.7157 40.518 87.2051 40.6388 85.6808 40.894C85.0704 40.994 84.6565 41.0389 84.3013 41.0389H84.2978C83.9874 41.0389 83.715 40.9975 83.477 40.9182C83.4115 40.963 83.3494 41.0078 83.2874 41.0561C83.2149 41.1079 83.1425 41.1596 83.0735 41.2148C82.9804 41.2838 82.8907 41.3528 82.8011 41.4217C82.7287 41.4769 82.6597 41.5321 82.5907 41.5908ZM83.7805 40.6974C83.7771 40.7009 83.7702 40.7078 83.7633 40.7112C83.9288 40.7422 84.1082 40.756 84.2978 40.756C84.6393 40.756 85.0393 40.7147 85.6325 40.6146C87.1741 40.3594 88.6984 40.2387 90.4401 40.2387C90.8746 40.2387 91.3229 40.2456 91.8092 40.2594C91.9748 40.2663 92.1196 40.2663 92.2507 40.2663C93.0163 40.2663 93.4577 40.18 93.7716 39.9627C94.144 39.704 94.3682 39.2349 94.5234 38.3968C94.6544 37.669 94.8476 36.9688 95.0959 36.2789C95.0579 36.2858 95.0166 36.2893 94.9752 36.2962C94.8648 36.31 94.751 36.3272 94.6372 36.3445C94.5406 36.3583 94.4441 36.3755 94.3475 36.3893C94.2889 36.3997 94.2302 36.41 94.1716 36.4169C94.044 36.786 93.9233 37.1585 93.8164 37.5483C93.6302 38.2347 93.337 38.7107 92.9197 39.0004C92.4231 39.3522 91.792 39.4005 91.185 39.4005C90.9919 39.4005 90.7918 39.3936 90.5849 39.3901C90.2918 39.3798 89.9572 39.3729 89.6193 39.3798C88.1777 39.4143 86.7878 39.5454 85.4911 39.7627C85.3738 39.7799 85.26 39.7937 85.1497 39.8006C85.1324 39.811 85.1117 39.8247 85.091 39.8351C84.9945 39.8972 84.8979 39.9558 84.7979 40.0179C84.7255 40.0662 84.6496 40.1145 84.5737 40.1628C84.4772 40.2249 84.3806 40.2869 84.2875 40.3525C84.2116 40.4008 84.1392 40.4525 84.0633 40.5008C83.9702 40.5663 83.8736 40.6319 83.7805 40.6974ZM88.6122 38.0277C88.5639 38.0484 88.5122 38.0691 88.4605 38.0898C88.4846 38.0863 88.5088 38.0829 88.5295 38.0794C88.933 38.0277 89.3192 38.0036 89.6951 37.9829C90.4504 37.938 91.1643 37.8966 91.7127 37.5862C92.0334 37.4034 92.2886 37.1309 92.4921 36.7618C92.4886 36.7618 92.4886 36.7618 92.4886 36.7618C92.3783 36.7894 92.2679 36.8136 92.1575 36.8412C92.0644 36.8653 91.9713 36.8895 91.8816 36.9136C91.7713 36.9446 91.6609 36.9722 91.5506 37.0033C91.4609 37.0309 91.3678 37.0585 91.2781 37.0826C91.1677 37.1137 91.0608 37.1482 90.9505 37.1826C90.8608 37.2102 90.7711 37.2378 90.6815 37.2654C90.5746 37.2999 90.4642 37.3344 90.3573 37.3723C90.2676 37.3999 90.1814 37.431 90.0917 37.462C89.9848 37.5 89.8745 37.5379 89.7676 37.5759C89.6813 37.6069 89.5951 37.6414 89.5089 37.6724C89.402 37.7138 89.2951 37.7552 89.1882 37.7966C89.1019 37.8276 89.0157 37.8621 88.9295 37.8966C88.826 37.938 88.7191 37.9829 88.6122 38.0277ZM85.8498 39.3867C85.8187 39.4039 85.7911 39.4212 85.7601 39.4384C86.981 39.2487 88.2708 39.1315 89.6124 39.1004C89.9469 39.0901 90.2676 39.1004 90.5746 39.1073C90.7987 39.1142 90.9919 39.1177 91.1815 39.1177C91.7471 39.1177 92.3265 39.0763 92.7611 38.7727C93.1163 38.5209 93.3749 38.0967 93.5439 37.4724C93.6405 37.1309 93.744 36.7998 93.8543 36.4756C93.8095 36.4824 93.7681 36.4893 93.7233 36.4997C93.6095 36.5204 93.4991 36.5411 93.3853 36.5618C93.2922 36.5825 93.1991 36.6032 93.1025 36.6239C93.0163 36.6411 92.9301 36.6584 92.8473 36.6791C92.6059 37.2102 92.2817 37.5862 91.854 37.8311C91.2471 38.176 90.5021 38.2174 89.7158 38.2623C89.3365 38.2864 88.9571 38.3071 88.5674 38.3588C88.3605 38.3864 88.088 38.4485 87.8259 38.5071C87.6604 38.5451 87.4879 38.5796 87.312 38.6175C87.2879 38.6279 87.2638 38.6382 87.2396 38.652C87.1362 38.7003 87.0361 38.752 86.9327 38.8038C86.8534 38.8452 86.7706 38.8866 86.6913 38.928C86.5878 38.9797 86.4878 39.0349 86.3878 39.0901C86.3085 39.1315 86.2291 39.1763 86.1498 39.2177C86.0498 39.2729 85.9498 39.3281 85.8498 39.3867ZM97.9239 36.2272C97.3341 37.4275 96.9617 38.7348 97.0582 40.1179C97.0927 40.6043 97.31 41.1562 97.5203 41.6908C97.6997 42.1564 97.8825 42.6255 97.9239 43.0291V36.2272ZM46.872 77.8008C51.7692 77.5662 56.3664 75.5657 59.9255 72.0957C67.83 64.3936 68.0646 51.7625 60.4428 43.9431C56.8458 40.249 52.0382 38.1588 46.872 38.0208V77.8008ZM45.8512 77.8249V38.0174C45.12 38.0346 44.3958 38.0898 43.6784 38.1829C43.6233 38.2898 43.5129 38.3588 43.3853 38.3588C43.2956 38.3588 43.2094 38.3209 43.1508 38.2623C41.6023 38.5071 40.0952 38.9314 38.6571 39.5281C38.6846 39.5764 38.7053 39.635 38.7053 39.6971C38.7053 39.8834 38.5536 40.0317 38.3708 40.0317C38.2191 40.0317 38.0915 39.9317 38.0501 39.7903C35.9463 40.7457 33.9978 42.0702 32.2907 43.7327C30.549 45.4297 29.1799 47.3648 28.1866 49.4343C28.2315 49.4136 28.2832 49.3998 28.3349 49.3998C28.5212 49.3998 28.6695 49.5481 28.6695 49.7344C28.6695 49.9172 28.5212 50.069 28.3349 50.069C28.1797 50.069 28.0521 49.962 28.0142 49.8172C27.3383 51.3038 26.852 52.8559 26.5554 54.4357C26.5899 54.4253 26.6244 54.415 26.6657 54.415C26.8485 54.415 26.9968 54.5667 26.9968 54.7496C26.9968 54.9358 26.8485 55.0841 26.6657 55.0841C26.583 55.0841 26.5106 55.0565 26.4519 55.0083C26.1312 57.0571 26.1277 59.1439 26.445 61.1893C26.5037 61.1375 26.5795 61.1065 26.6657 61.1065C26.7796 61.1065 26.883 61.1651 26.9416 61.2548C26.9761 61.3065 27.0003 61.3721 27.0003 61.4411C27.0003 61.4859 26.9899 61.5307 26.9727 61.5721C26.921 61.6929 26.8037 61.7756 26.6657 61.7756C26.6175 61.7756 26.5761 61.7653 26.5381 61.748C26.8313 63.3416 27.321 64.9075 28.0073 66.4045C28.0349 66.2458 28.1694 66.1251 28.3349 66.1251C28.5212 66.1251 28.6695 66.2734 28.6695 66.4597C28.6695 66.6425 28.5212 66.7943 28.3349 66.7943C28.2763 66.7943 28.2211 66.777 28.1729 66.7494C29.0661 68.5982 30.2628 70.3401 31.7699 71.8888C33.615 73.7789 35.7739 75.2518 38.1363 76.2555C38.1949 76.1969 38.2777 76.1589 38.3708 76.1589C38.5501 76.1589 38.6984 76.3038 38.7053 76.4831C40.9125 77.342 43.2853 77.8042 45.7373 77.8249C45.7753 77.8249 45.8132 77.8249 45.8512 77.8249ZM71.8892 61.5894C71.8892 61.3617 71.8927 61.1375 71.8961 60.9099C71.8996 60.834 71.903 60.7547 71.9065 60.6788C71.9099 60.5305 71.9168 60.3821 71.9237 60.2338C71.9272 60.1441 71.9341 60.051 71.941 59.9613C71.9479 59.8268 71.9548 59.6958 71.9651 59.5612C71.972 59.4647 71.9823 59.3681 71.9892 59.2715C72.003 59.1473 72.0099 59.0197 72.0237 58.8955C72.0341 58.7921 72.0479 58.692 72.0582 58.5886C72.072 58.4713 72.0858 58.3506 72.0996 58.2333C72.1134 58.1298 72.1272 58.0229 72.1444 57.9194C72.1582 57.8056 72.1755 57.6917 72.1927 57.5779C72.2065 57.471 72.2272 57.3641 72.2444 57.2606C72.2617 57.1468 72.2789 57.0364 72.2996 56.926C72.3169 56.8191 72.341 56.7122 72.3617 56.6052C72.3824 56.4949 72.3996 56.3879 72.4238 56.281C72.4445 56.1706 72.4686 56.0603 72.4928 55.9533C72.5169 55.8499 72.5376 55.7429 72.5617 55.6395C72.5859 55.5291 72.6135 55.4222 72.6411 55.3152C72.6652 55.2118 72.6893 55.1048 72.7169 55.0014C72.7445 54.8944 72.7721 54.7875 72.8031 54.6806C72.8307 54.5771 72.8549 54.4771 72.8859 54.3736C72.917 54.2667 72.948 54.1597 72.979 54.0494C73.0101 53.9493 73.0377 53.8493 73.0687 53.7527C73.1032 53.6424 73.1377 53.5354 73.1756 53.4285C73.2066 53.3285 73.2377 53.2319 73.2687 53.1353C73.3067 53.0284 73.3446 52.918 73.3825 52.8111C73.417 52.718 73.4481 52.6214 73.4825 52.5283C73.5205 52.4179 73.5619 52.311 73.6033 52.204C73.6377 52.1109 73.6757 52.0178 73.7102 51.9246C73.7516 51.8143 73.7964 51.7073 73.8412 51.6004C73.8792 51.5107 73.9136 51.4176 73.9516 51.3279C73.9964 51.221 74.0447 51.1141 74.0895 51.0071C74.1309 50.9175 74.1688 50.8278 74.2068 50.7416C74.2551 50.6346 74.3068 50.5277 74.3551 50.4208C74.3965 50.3345 74.4344 50.2483 74.4792 50.1586C74.5275 50.0552 74.5793 49.9482 74.6344 49.8448C74.6758 49.7585 74.7172 49.6723 74.762 49.5861C74.8138 49.4826 74.8689 49.3757 74.9241 49.2722C74.969 49.1894 75.0103 49.1032 75.0552 49.0204C75.1138 48.9169 75.1724 48.8134 75.2311 48.71C75.2759 48.6272 75.3207 48.5444 75.3656 48.4651C75.4276 48.3616 75.4863 48.2581 75.5484 48.1546C75.5932 48.0753 75.6415 47.996 75.6898 47.9166C75.7518 47.8132 75.8139 47.7097 75.8794 47.6097C75.9277 47.5303 75.976 47.4544 76.0243 47.3751C76.0898 47.2751 76.1553 47.1716 76.2209 47.0716C76.2691 46.9957 76.3209 46.9198 76.3692 46.8439C76.4381 46.7439 76.5071 46.6439 76.5761 46.5438C76.6278 46.4714 76.6795 46.3955 76.7313 46.3196C76.8002 46.2231 76.8727 46.123 76.9451 46.023C76.9968 45.9506 77.0486 45.8781 77.1037 45.8092C77.1762 45.7091 77.2486 45.6126 77.321 45.516C77.3762 45.4435 77.4314 45.3746 77.4865 45.3021C77.5624 45.2055 77.6383 45.109 77.7142 45.0158C77.7693 44.9469 77.8245 44.8779 77.8797 44.8089C77.959 44.7123 78.0384 44.6192 78.1177 44.526C78.1729 44.4571 78.2315 44.3881 78.2867 44.3225C78.3694 44.2294 78.4487 44.1363 78.5315 44.0432C78.5901 43.9776 78.6453 43.9121 78.704 43.8465C78.7867 43.7569 78.8695 43.6637 78.9557 43.5741C79.0143 43.5085 79.073 43.4464 79.1351 43.3809C79.2178 43.2912 79.304 43.205 79.3903 43.1153C79.4523 43.0532 79.511 42.9877 79.573 42.9256C79.6627 42.8394 79.7489 42.7531 79.8386 42.6669C79.9007 42.6048 79.9628 42.5427 80.0248 42.4841C80.1145 42.3979 80.2042 42.3116 80.2938 42.2254C80.3594 42.1668 80.4214 42.1081 80.487 42.0495C80.5766 41.9667 80.6697 41.8805 80.7594 41.7977C80.8249 41.7425 80.8905 41.6839 80.956 41.6252C81.0491 41.5459 81.1422 41.4631 81.2388 41.3838C81.3043 41.3252 81.3698 41.27 81.4388 41.2148C81.5319 41.1355 81.6285 41.0561 81.7251 40.9768C81.794 40.9216 81.8596 40.8664 81.9285 40.8147C82.0251 40.7353 82.1217 40.6595 82.2217 40.5836C82.2907 40.5318 82.3596 40.4767 82.4286 40.4249C82.5286 40.349 82.6252 40.2766 82.7252 40.2042C82.7976 40.149 82.8666 40.0972 82.939 40.0455C83.039 39.9731 83.1391 39.9041 83.2425 39.8316C83.3149 39.7799 83.3874 39.7316 83.4598 39.6799C83.5598 39.6109 83.6633 39.5419 83.7667 39.4729C83.8391 39.4246 83.9116 39.3764 83.9874 39.3281C84.0909 39.2625 84.1944 39.1935 84.2978 39.128C84.3737 39.0832 84.4496 39.0349 84.5255 38.9866C84.6289 38.9245 84.7324 38.859 84.8393 38.7969C84.9152 38.7486 84.9945 38.7038 85.0704 38.6589C85.1773 38.5968 85.2842 38.5347 85.3911 38.4761C85.467 38.4313 85.5463 38.3864 85.6256 38.345C85.7325 38.2829 85.8394 38.2243 85.9463 38.1691C86.0291 38.1243 86.1084 38.0829 86.1878 38.0415C86.2947 37.9829 86.405 37.9277 86.5119 37.8725C86.5947 37.8311 86.6775 37.7932 86.7602 37.7518C86.8672 37.6966 86.9775 37.6448 87.0879 37.5931C87.1706 37.5517 87.2534 37.5138 87.3396 37.4758C87.4465 37.4241 87.5569 37.3758 87.6673 37.3241C87.7535 37.2861 87.8397 37.2516 87.9259 37.2137C88.0363 37.1654 88.1466 37.1171 88.257 37.0723C88.3432 37.0343 88.4294 36.9998 88.5191 36.9653C88.6295 36.9205 88.7398 36.8757 88.8536 36.8308C88.9399 36.7963 89.0295 36.7618 89.1192 36.7308C89.2296 36.6894 89.3434 36.648 89.4537 36.6066C89.5468 36.5721 89.6365 36.5411 89.7296 36.51C89.84 36.4687 89.9503 36.4307 90.0641 36.3928C90.1573 36.3617 90.2504 36.3341 90.3435 36.3031C90.4539 36.2686 90.5677 36.2307 90.6815 36.1962C90.7746 36.1686 90.8712 36.141 90.9643 36.1134C91.0781 36.0789 91.1884 36.0478 91.3023 36.0134C91.3988 35.9892 91.4954 35.9616 91.5919 35.9375C91.7058 35.9064 91.8196 35.8754 91.9299 35.8478C92.0299 35.8237 92.13 35.7995 92.23 35.7754C92.3403 35.7478 92.4541 35.7202 92.5645 35.696C92.668 35.6719 92.768 35.6512 92.868 35.6305C92.9818 35.6063 93.0922 35.5822 93.206 35.5581C93.3094 35.5374 93.4129 35.5201 93.5163 35.4994C93.6302 35.4787 93.7405 35.458 93.8509 35.4373C93.9578 35.4201 94.0647 35.4028 94.1682 35.3856C94.282 35.3683 94.3923 35.3477 94.5027 35.3339C94.6096 35.3166 94.72 35.3028 94.8269 35.2856C94.9372 35.2718 95.0476 35.258 95.1614 35.2442C95.2718 35.2304 95.3821 35.2166 95.489 35.2062C95.5994 35.1924 95.7098 35.1821 95.8201 35.1683C95.9339 35.1579 96.0477 35.1476 96.1615 35.1407C96.2685 35.1304 96.3788 35.12 96.4857 35.1131C96.603 35.1062 96.7168 35.0993 96.834 35.0924C96.941 35.0855 97.0513 35.0786 97.1582 35.0717C97.2755 35.0683 97.3927 35.0614 97.5135 35.0579C97.6204 35.0545 97.7273 35.051 97.8342 35.0476C97.8652 35.0476 97.8928 35.0476 97.9239 35.0476V26.5521C97.9239 12.4758 86.474 1.02094 72.3962 1.02094C58.3218 1.02094 46.872 12.4758 46.872 26.5521V36.9998C52.3141 37.1413 57.3838 39.3384 61.174 43.2326C69.1854 51.4555 68.944 64.7316 60.6359 72.827C56.8872 76.4797 52.0348 78.5837 46.872 78.8217V98.9066H71.8892V61.5894ZM72.9066 98.9066H75.6035C75.6898 98.8617 75.776 98.8203 75.8622 98.7755C77.8349 97.789 80.0662 96.668 80.5318 95.4332C80.7594 94.8296 80.7077 94.2812 80.3732 93.7983C79.5868 92.6635 77.4831 92.1461 75.8622 92.1461C75.3621 92.1461 74.9 92.1909 74.4827 92.2806C73.9309 92.3979 73.4067 92.5152 72.9066 92.6255V93.8466C73.6377 93.6534 74.393 93.4947 75.0931 93.4947C75.4897 93.4947 75.838 93.543 76.1588 93.6431C76.9934 93.9052 77.4383 94.3294 77.4831 94.902C77.5659 95.9506 76.2174 97.1337 75.2759 97.6062C74.3792 98.0546 73.5653 98.4651 72.9066 98.8824V98.9066ZM123.962 61.5894C123.962 47.6821 112.785 36.3376 98.9447 36.0651V98.9066H123.962V61.5894Z"
                    fill="black" />
            </g>
        </g>
    </g>
</svg>
    